<svg xmlns="http://www.w3.org/2000/svg" width="388" height="388" viewBox="0 0 388 388">
  <g id="Group_457" data-name="Group 457" transform="translate(-20 -93)">
    <circle id="Ellipse_65" data-name="Ellipse 65" cx="194" cy="194" r="194" transform="translate(20 93)" fill="#fff"/>
    <g id="Group_459" data-name="Group 459" transform="translate(67 183)">
      <circle id="Ellipse_67" data-name="Ellipse 67" cx="16.016" cy="16.016" r="16.016" transform="translate(134.187 174.788)" fill="#50cb93"/>
      <path id="Path_531" data-name="Path 531" d="M504.149,388.858c8.96-2.691,18.486-5.5,25.593-11.894,6.35-5.716,10.637-14.446,8.006-23.019-2.625-8.556-10.489-14.26-18.608-17.1a76.343,76.343,0,0,0-14.238-3.2c-5.235-.762-10.493-1.387-15.748-1.988Q457.234,328,425.073,327.2c-10.579-.266-21.157-.26-31.738-.106-9.449.137-19.4.134-28.168-3.882-6.817-3.123-13-8.805-14.9-16.272-2.193-8.619,1.852-17.4,7.653-23.639a61.964,61.964,0,0,1,10.319-8.606c4-2.763,8.139-5.329,12.368-7.726a172.227,172.227,0,0,1,26.033-12c4.438-1.614,8.942-3.006,13.484-4.29a115.382,115.382,0,0,0,11.391-3.648c7.167-2.856,13.983-7.695,15.806-15.627,1.727-7.518-1.185-15.679-6.29-21.264-5.906-6.461-14.812-9.294-23.349-9.752-9.585-.514-18.949,1.884-27.958,4.929-9.609,3.247-19.01,6.981-28.822,9.611a193.922,193.922,0,0,1-29.664,5.514c-4.9.522-9.955,1.112-14.887.712-4.134-.335-8.247-1.551-11.293-4.484a11.168,11.168,0,0,1-3.633-9.621c.1-.663,1.1-.381,1.007.278-.651,4.441,2.368,8.534,6.088,10.63,4.3,2.423,9.531,2.426,14.318,2.149a187.264,187.264,0,0,0,30.819-4.455,247.674,247.674,0,0,0,29.144-9c9.107-3.3,18.418-6.517,28.147-7.231,8.442-.62,17.323.61,24.677,5.022A27.3,27.3,0,0,1,448.353,222.2a20.59,20.59,0,0,1-6.058,19.609c-5.683,5.239-13.475,7.479-20.737,9.542A189.979,189.979,0,0,0,394.612,261a169.157,169.157,0,0,0-25.348,14.25c-7.746,5.293-15.39,11.953-17.84,21.4a19.711,19.711,0,0,0,.979,13.219,24.156,24.156,0,0,0,7.751,9.2c7.772,5.719,17.567,6.893,26.954,7.01,10.543.131,21.087-.225,31.634-.052q32.241.529,64.351,3.925,8.046.852,16.071,1.883a145.325,145.325,0,0,1,14.372,2.331c8.413,1.953,16.6,5.707,21.828,12.84a20.3,20.3,0,0,1,1.729,22.2c-4.015,7.9-11.537,12.926-19.524,16.227a138.535,138.535,0,0,1-13.144,4.438.523.523,0,0,1-.278-1.007Z" transform="translate(-258.262 -182.937)" fill="#aaa"/>
      <circle id="Ellipse_68" data-name="Ellipse 68" cx="8.356" cy="8.356" r="8.356" transform="translate(35.477 15.842)" fill="#c8f1de"/>
      <circle id="Ellipse_69" data-name="Ellipse 69" cx="8.356" cy="8.356" r="8.356" transform="translate(93.45 31.685)" fill="#c8f1de"/>
      <circle id="Ellipse_70" data-name="Ellipse 70" cx="8.356" cy="8.356" r="8.356" transform="translate(142.544)" fill="#c8f1de"/>
      <circle id="Ellipse_71" data-name="Ellipse 71" cx="8.356" cy="8.356" r="8.356" transform="translate(173.184 35.515)" fill="#c8f1de"/>
      <circle id="Ellipse_72" data-name="Ellipse 72" cx="8.356" cy="8.356" r="8.356" transform="translate(131.75 76.6)" fill="#c8f1de"/>
      <circle id="Ellipse_73" data-name="Ellipse 73" cx="8.356" cy="8.356" r="8.356" transform="translate(79.174 96.447)" fill="#c8f1de"/>
      <circle id="Ellipse_74" data-name="Ellipse 74" cx="8.356" cy="8.356" r="8.356" transform="translate(134.884 127.435)" fill="#f2f2f2"/>
      <circle id="Ellipse_75" data-name="Ellipse 75" cx="8.356" cy="8.356" r="8.356" transform="translate(194.771 144.844)" fill="#f2f2f2"/>
      <circle id="Ellipse_76" data-name="Ellipse 76" cx="8.356" cy="8.356" r="8.356" transform="translate(264.756 141.014)" fill="#c8f1de"/>
      <path id="Path_532" data-name="Path 532" d="M518.225,220.371a46.349,46.349,0,0,0-45.883,45.548c0,.231,0,1.856,0,3.981a11.75,11.75,0,0,0,11.748,11.75h0a11.757,11.757,0,0,0,11.755-11.765c0-1.448,0-2.449,0-2.51a22.284,22.284,0,1,1,34.3,18.76l0,0s-16.723,10.766-21.821,25.534h0a32.733,32.733,0,0,0-1.349,9.32c0,1.3.076,12.646.224,21.858a12.112,12.112,0,0,0,12.113,11.916h0a12.115,12.115,0,0,0,12.115-12.19c-.051-8.436-.079-18.259-.079-18.972,0-9.068,8.748-18.1,15.934-24a48.328,48.328,0,0,0,16.621-26.462,30.2,30.2,0,0,0,.87-6.558,46.221,46.221,0,0,0-46.555-46.22Z" transform="translate(-369.737 -196.693)" fill="#50cb93"/>
      <path id="Path_533" data-name="Path 533" d="M471.351,746.079H178.077a.415.415,0,0,1,0-.829H471.35a.415.415,0,1,1,0,.829Z" transform="translate(-177.662 -538.818)" fill="#3f3d56"/>
      <circle id="Ellipse_77" data-name="Ellipse 77" cx="10.446" cy="10.446" r="10.446" transform="translate(208.37 74.162)" fill="#2f2e41"/>
      <path id="Path_534" data-name="Path 534" d="M561.219,551.306h-4.268l-2.031-16.465h6.3Z" transform="translate(-361.706 -348.618)" fill="#a0616a"/>
      <path id="Path_535" data-name="Path 535" d="M542.292,578.626h8.232v5.183H537.109a5.183,5.183,0,0,1,5.183-5.183Z" transform="translate(-350.097 -377.158)" fill="#2f2e41"/>
      <path id="Path_536" data-name="Path 536" d="M656.219,551.306h-4.268l-2.031-16.465h6.3Z" transform="translate(-423.629 -348.618)" fill="#a0616a"/>
      <path id="Path_537" data-name="Path 537" d="M637.292,578.626h8.232v5.183H632.109A5.183,5.183,0,0,1,637.292,578.626Z" transform="translate(-412.019 -377.158)" fill="#2f2e41"/>
      <circle id="Ellipse_78" data-name="Ellipse 78" cx="8.552" cy="8.552" r="8.552" transform="translate(208.676 78.01)" fill="#a0616a"/>
      <path id="Path_538" data-name="Path 538" d="M758.952,459.089l3.826-8.792a10.927,10.927,0,0,0-2.42-12.4,11.1,11.1,0,0,0-1.069-.93,10.771,10.771,0,0,0-6.612-2.288,11.2,11.2,0,0,0-4.666,1.038c-.126.056-.247.115-.373.174-.24.115-.477.24-.707.369a11.03,11.03,0,0,0-5.467,8.315l-1.689,14.15c-.425,1.111-15.578,41.221-10.278,71.844a1.555,1.555,0,0,0,1.33,1.278l5.372.731a1.566,1.566,0,0,0,1.744-1.229l9.014-42.969a1.22,1.22,0,0,1,2.368-.08l12.737,45.187a1.557,1.557,0,0,0,1.5,1.142,1.8,1.8,0,0,0,.3-.028l6.563-1.264a1.557,1.557,0,0,0,1.264-1.675C770.731,520.913,765.605,467.038,758.952,459.089Z" transform="translate(-536.626 -336.387)" fill="#2f2e41"/>
      <path id="Path_539" data-name="Path 539" d="M706.058,415.55a3.5,3.5,0,0,0,3.689,3.9l4.78,11.487,3.616-5.36-5.094-10.087a3.52,3.52,0,0,0-6.991.059Z" transform="translate(-522.064 -321.872)" fill="#a0616a"/>
      <path id="Path_540" data-name="Path 540" d="M792.775,511.621a3.5,3.5,0,0,0,2.934-4.5l10.057-7.325-6.055-2.267-8.622,7.3a3.52,3.52,0,0,0,1.686,6.785Z" transform="translate(-576.021 -377.352)" fill="#a0616a"/>
      <path id="Path_541" data-name="Path 541" d="M729.962,455.528a5.938,5.938,0,0,1-1.148-.113,5.677,5.677,0,0,1-4.16-3.348l-6.7-8.166a1.567,1.567,0,0,1,.387-2.326l4.765-2.949a1.567,1.567,0,0,1,2.164.519l4.72,7.776,9.039-6.68a3.385,3.385,0,0,1,3.938,5.418l-9.022,8.23A5.659,5.659,0,0,1,729.962,455.528Z" transform="translate(-529.603 -338.802)" fill="#2f2e41"/>
      <path id="Path_542" data-name="Path 542" d="M812.389,472.589h-.037a1.569,1.569,0,0,1-1.153-.547l-4.236-4.942a1.567,1.567,0,0,1,.32-2.323l7.932-5.288-7.186-8.639a3.385,3.385,0,0,1,5.184-4.242l8.734,8.535a5.754,5.754,0,0,1-1.28,9.38l-7.138,7.574a1.57,1.57,0,0,1-1.14.492Z" transform="translate(-587.605 -343.583)" fill="#2f2e41"/>
      <path id="Path_543" data-name="Path 543" d="M786.451,445.555a1.611,1.611,0,0,1-.2-.013,1.553,1.553,0,0,1-1.292-1.069l-3.183-9.759a1.073,1.073,0,0,1,.555-1.3l.1-.049c.094-.045.186-.089.281-.131a11.341,11.341,0,0,1,4.736-1.053,10.907,10.907,0,0,1,5.975,1.8,1.09,1.09,0,0,1,.314,1.5l-5.971,9.355A1.551,1.551,0,0,1,786.451,445.555Z" transform="translate(-571.397 -334.758)" fill="#e6e6e6"/>
      <circle id="Ellipse_79" data-name="Ellipse 79" cx="3.418" cy="3.418" r="3.418" transform="translate(223.633 73.108)" fill="#2f2e41"/>
      <path id="Path_544" data-name="Path 544" d="M779.164,361.365h0a9.053,9.053,0,0,0-9.053,9.053v3.83h4.711l2.253-3.83.676,3.83h14.3l-3.83-3.83A9.053,9.053,0,0,0,779.164,361.365Z" transform="translate(-563.83 -288.596)" fill="#2f2e41"/>
      <path id="Path_545" data-name="Path 545" d="M834.809,358.563a5.275,5.275,0,0,1,5.738-3.62,7.31,7.31,0,0,1,4.927,4.071,40.09,40.09,0,0,1,2.19,6.242,11.306,11.306,0,0,0,3.41,5.565c1.741,1.358,4.414,1.726,6.124.329a7,7,0,0,1-13.049,2.5,15.152,15.152,0,0,1-1.4-5.31,11.6,11.6,0,0,0-1.693-5.2c-1.077-1.494-3.094-2.47-4.806-1.789Z" transform="translate(-606.001 -284.379)" fill="#2f2e41"/>
      <path id="Path_546" data-name="Path 546" d="M487.1,311.909h0a11.75,11.75,0,0,1-11.749-11.748c0-2.127,0-3.751,0-3.983a45.788,45.788,0,0,1,5.348-20.859,45.891,45.891,0,0,0-8.83,26.43c0,.231,0,1.856,0,3.981a11.75,11.75,0,0,0,11.748,11.75h0a11.759,11.759,0,0,0,11.312-8.562,11.707,11.707,0,0,1-7.83,2.991Z" transform="translate(-369.428 -232.51)" fill="#3f3d56"/>
      <path id="Path_547" data-name="Path 547" d="M572.672,281a22.285,22.285,0,0,1,19.38,31.132,22.283,22.283,0,1,0-37.4-23.323A22.239,22.239,0,0,1,572.672,281Z" transform="translate(-423.388 -232.566)" fill="#3f3d56"/>
      <path id="Path_548" data-name="Path 548" d="M587.183,501.453h0a12.113,12.113,0,0,1-12.113-11.918c-.147-9.209-.224-20.558-.224-21.855a32.728,32.728,0,0,1,1.349-9.32h0a33.1,33.1,0,0,1,1.913-4.422,38.319,38.319,0,0,0-5.395,9.993h0a32.732,32.732,0,0,0-1.349,9.32c0,1.3.076,12.647.224,21.858A12.112,12.112,0,0,0,583.7,507.024h0a12.117,12.117,0,0,0,11.629-8.719A12.068,12.068,0,0,1,587.183,501.453Z" transform="translate(-434.284 -348.936)" fill="#3f3d56"/>
      <path id="Path_549" data-name="Path 549" d="M126.539,551.761h4.268l2.031-16.465h-6.3Z" transform="translate(-82.48 -348.915)" fill="#ffb8b8"/>
      <path id="Path_550" data-name="Path 550" d="M0,0H13.416V5.183H5.183A5.183,5.183,0,0,1,0,0Z" transform="translate(56.559 206.81) rotate(179.997)" fill="#2f2e41"/>
      <path id="Path_551" data-name="Path 551" d="M82.539,551.761h4.268L88.838,535.3h-6.3Z" transform="translate(-53.8 -348.915)" fill="#ffb8b8"/>
      <path id="Path_552" data-name="Path 552" d="M0,0H13.416V5.183H5.183A5.183,5.183,0,0,1,0,0Z" transform="translate(41.239 206.81) rotate(179.997)" fill="#2f2e41"/>
      <path id="Path_553" data-name="Path 553" d="M260.225,613.472l-4.169-.219a1.627,1.627,0,0,1-1.538-1.729l4.983-55.175,22.949,6.193,2.211-.6-6.914,48.845a1.635,1.635,0,0,1-1.517,1.373l-4.495.209a1.628,1.628,0,0,1-1.717-1.67l.814-29.316a.543.543,0,0,0-1.074-.125L261.9,612.177a1.618,1.618,0,0,1-1.591,1.3C260.284,613.475,260.255,613.474,260.225,613.472Z" transform="translate(-227.755 -415.689)" fill="#2f2e41"/>
      <circle id="Ellipse_80" data-name="Ellipse 80" cx="8.552" cy="8.552" r="8.552" transform="translate(36.274 78.41)" fill="#ffb8b8"/>
      <path id="Path_554" data-name="Path 554" d="M265.484,448.923l.94,20.288.34,7.381a1.616,1.616,0,0,0,1.07,1.454l22.053,7.989a1.558,1.558,0,0,0,.557.1,1.617,1.617,0,0,0,1.624-1.667l-.9-36.478a12.859,12.859,0,0,0-10.7-12.422c-.213-.033-.43-.065-.647-.094a12.621,12.621,0,0,0-10.155,3.287,12.965,12.965,0,0,0-4.173,10.166Z" transform="translate(-234.896 -336.836)" fill="#ccc"/>
      <path id="Path_555" data-name="Path 555" d="M348.356,539.956a3.5,3.5,0,0,1-1.869-5.3l-7.478-9.944,6.453-.4,6.112,9.5a3.52,3.52,0,0,1-3.218,6.141Z" transform="translate(-282.83 -394.807)" fill="#ffb8b8"/>
      <path id="Path_556" data-name="Path 556" d="M327.37,485.687a1.617,1.617,0,0,1-.885-.877l-11.266-26.843a4.34,4.34,0,0,1,8-3.359l11.267,26.843a1.629,1.629,0,0,1-.871,2.13l-5,2.1a1.616,1.616,0,0,1-1.246.006Z" transform="translate(-267.103 -347.639)" fill="#ccc"/>
      <path id="Path_557" data-name="Path 557" d="M298.148,505.637l10.821-20.72a1.7,1.7,0,0,1,2.289-.718l15.707,8.2a1.7,1.7,0,0,1,.718,2.289l-10.821,20.72a1.7,1.7,0,0,1-2.289.719l-15.707-8.2a1.7,1.7,0,0,1-.718-2.289Z" transform="translate(-256.071 -368.535)" fill="#3f3d56"/>
      <path id="Path_558" data-name="Path 558" d="M289.794,503.16a3.5,3.5,0,0,0-5.4-1.553l-10.368-6.878L274,501.194l9.848,5.54a3.52,3.52,0,0,0,5.94-3.575Z" transform="translate(-240.46 -375.525)" fill="#ffb8b8"/>
      <path id="Path_559" data-name="Path 559" d="M258.211,471.576l-8.474-6.712a5.976,5.976,0,0,1-2.724-9.448l7.694-10.083a3.515,3.515,0,0,1,5.964,3.581l-6.088,9.958,8.946,4.243a1.627,1.627,0,0,1,.678,2.34L260.6,471.17a1.63,1.63,0,0,1-1.1.735l-.027,0A1.635,1.635,0,0,1,258.211,471.576Z" transform="translate(-221.987 -342.487)" fill="#ccc"/>
      <path id="Path_560" data-name="Path 560" d="M279.974,385.3a.743.743,0,0,1,.646-.982,1.717,1.717,0,0,1,1.21.6,4.816,4.816,0,0,0,1.069.918.92.92,0,0,0,1.211-.219,1.684,1.684,0,0,0-.064-1.307,12.849,12.849,0,0,1-.568-3.4,5.989,5.989,0,0,1,.856-3.638,4.813,4.813,0,0,1,4.124-1.754,27.718,27.718,0,0,1,4.633.821,1.556,1.556,0,0,0,1.515-.254,1.953,1.953,0,0,0,.079-1.742,12.1,12.1,0,0,0-1.833-4.37,6.58,6.58,0,0,0-4.2-2.364,10.076,10.076,0,0,0-4.687.532,12.568,12.568,0,0,0-6.157,4.289,10.179,10.179,0,0,0-1.942,7.521,9.285,9.285,0,0,0,3.442,5.868Z" transform="translate(-241.61 -292.616)" fill="#2f2e41"/>
      <path id="Path_561" data-name="Path 561" d="M575.49,688.551a16.014,16.014,0,0,1-5.944-24.891A16.015,16.015,0,1,0,591.332,686.8,16.006,16.006,0,0,1,575.49,688.551Z" transform="translate(-428.815 -485.637)" fill="#3f3d56"/>
    </g>
  </g>
</svg>
