<svg xmlns="http://www.w3.org/2000/svg" width="328" height="277" viewBox="0 0 328 277">
  <g id="Group_355" data-name="Group 355" transform="translate(0 0.001)">
    <path id="Path_415" data-name="Path 415" d="M395.927,185.874q0,5.838-.491,11.559-.387,4.465-1.055,8.85-.71,4.643-1.741,9.174v0q-.674,2.982-1.48,5.915a131.71,131.71,0,0,1-5.8,16.683q-.752,1.77-1.553,3.516a131.793,131.793,0,0,1-6.776,12.861,134.228,134.228,0,0,1-25.89,31.281q-1.651,1.467-3.346,2.886a133.69,133.69,0,1,1-2.434-207.434q1.661,1.316,3.28,2.691a134.653,134.653,0,0,1,14.705,14.553h0a133.154,133.154,0,0,1,32.582,87.462Z" transform="translate(-128.499 -52.185)" fill="#c7e8fb"/>
    <path id="Path_416" data-name="Path 416" d="M202.15,434.158c-12.738-7.581-22.352-21.75-21.1-36.52a68.3,68.3,0,0,0,42.946,18.823c6.206.367,13.147.129,17.715,4.345,2.843,2.624,4.166,6.574,4.383,10.436a45.343,45.343,0,0,1-1.326,11.495l.265.929C230.206,443.721,214.888,441.739,202.15,434.158Z" transform="translate(-162.678 -277.373)" fill="#24885c"/>
    <path id="Path_417" data-name="Path 417" d="M180.92,397.211a58.375,58.375,0,0,0,24.263,26.481,25.138,25.138,0,0,0,7.324,2.9,14.418,14.418,0,0,0,7.564-.6c2.275-.767,4.514-1.816,6.936-2.017a8.828,8.828,0,0,1,6.774,2.5,22.937,22.937,0,0,1,4.9,7.7c1.391,3.094,2.786,6.329,5.453,8.554.323.27-.114.755-.437.486-4.639-3.871-5.4-10.353-9.1-14.912a8.941,8.941,0,0,0-6.942-3.7c-2.474.037-4.784,1.116-7.081,1.913a15.385,15.385,0,0,1-7.375.862,23.239,23.239,0,0,1-7.408-2.606,56.633,56.633,0,0,1-14.1-10.7A59.41,59.41,0,0,1,180.3,397.41c-.174-.381.449-.578.622-.2Z" transform="translate(-162.241 -276.961)" fill="#fff"/>
    <path id="Path_418" data-name="Path 418" d="M220.565,467.578A8.758,8.758,0,0,1,209.486,470c-.37-.2-.079-.784.292-.585a8.11,8.11,0,0,0,10.3-2.274c.253-.336.738.1.486.437Z" transform="translate(-181.174 -322.596)" fill="#fff"/>
    <path id="Path_419" data-name="Path 419" d="M280.2,460.51A16.881,16.881,0,0,0,274.32,449.7c-.322-.271.115-.756.437-.486a17.558,17.558,0,0,1,6.093,11.258c.051.418-.6.451-.652.035Z" transform="translate(-223.47 -310.94)" fill="#fff"/>
    <path id="Path_420" data-name="Path 420" d="M201.686,422.307a4.958,4.958,0,0,0,1.668-4.4c-.057-.417.6-.449.652-.035a5.555,5.555,0,0,1-1.834,4.87.338.338,0,0,1-.461.025A.328.328,0,0,1,201.686,422.307Z" transform="translate(-176.147 -290.367)" fill="#fff"/>
    <path id="Path_421" data-name="Path 421" d="M283.568,315.46c.043.259.086.519.133.781a65.286,65.286,0,0,0,2.617,10.262c.085.26.174.522.267.779a68.828,68.828,0,0,0,12.739,21.906,66.843,66.843,0,0,0,7.206,7.156c3.563,3.037,7.668,6.047,9.953,9.968a11.472,11.472,0,0,1,.651,1.261l-9.7,22.134c-.047.039-.09.081-.137.12l-.347.9c-.141-.1-.285-.215-.426-.319-.082-.06-.162-.125-.244-.185-.054-.042-.108-.083-.159-.118-.018-.014-.036-.028-.049-.039-.051-.034-.095-.072-.141-.1q-1.21-.928-2.411-1.875c-.005,0-.005,0-.008-.009a98.28,98.28,0,0,1-16.566-16.293c-.143-.183-.29-.368-.428-.561a63.785,63.785,0,0,1-5.659-8.736,56.376,56.376,0,0,1-2.426-5.164,46.888,46.888,0,0,1-3.339-14.275c-.711-9.776,1.712-19.671,7.991-27.032C283.243,315.83,283.4,315.646,283.568,315.46Z" transform="translate(-224.032 -223.807)" fill="#68c19a"/>
    <path id="Path_422" data-name="Path 422" d="M296.641,315.144A58.375,58.375,0,0,0,300.07,350.9a25.138,25.138,0,0,0,4.1,6.723,14.418,14.418,0,0,0,6.4,4.076c2.279.757,4.7,1.268,6.752,2.566a8.828,8.828,0,0,1,3.9,6.073,22.937,22.937,0,0,1-.72,9.1c-.752,3.307-1.586,6.731-.8,10.113.1.41-.546.534-.641.125-1.374-5.884,1.925-11.515,1.709-17.388a8.94,8.94,0,0,0-3.313-7.136c-2-1.46-4.492-1.989-6.805-2.735a15.386,15.386,0,0,1-6.407-3.752,23.24,23.24,0,0,1-4.346-6.541,56.634,56.634,0,0,1-4.819-17.032,59.41,59.41,0,0,1,.934-20.158c.09-.409.707-.191.617.216Z" transform="translate(-236.851 -223.318)" fill="#fff"/>
    <path id="Path_423" data-name="Path 423" d="M285.783,398.735a8.758,8.758,0,0,1-10.3-4.736c-.176-.382.409-.673.585-.291a8.11,8.11,0,0,0,9.594,4.386c.4-.115.527.526.125.641Z" transform="translate(-224.278 -274.69)" fill="#fff"/>
    <path id="Path_424" data-name="Path 424" d="M336.861,425.5a16.881,16.881,0,0,0,1.814-12.168c-.094-.41.547-.535.641-.125A17.558,17.558,0,0,1,337.4,425.86c-.211.365-.751,0-.542-.365Z" transform="translate(-264.356 -287.351)" fill="#fff"/>
    <path id="Path_425" data-name="Path 425" d="M295.429,349.637a4.957,4.957,0,0,0,3.98-2.508c.206-.367.746,0,.542.365a5.555,5.555,0,0,1-4.4,2.784.338.338,0,0,1-.383-.258.328.328,0,0,1,.258-.383Z" transform="translate(-237.13 -244.346)" fill="#fff"/>
    <path id="Path_426" data-name="Path 426" d="M363.865,140.787l16.366,191.585L347.5,334.832V143.224C351.4,140.643,357,140.24,363.865,140.787Z" transform="translate(-271.333 -109.796)" fill="#f0f2f5"/>
    <path id="Path_427" data-name="Path 427" d="M595.865,140.787,579.5,332.371l32.732,2.461V143.224C608.331,140.643,602.732,140.24,595.865,140.787Z" transform="translate(-422.646 -109.796)" fill="#f0f2f5"/>
    <path id="Path_428" data-name="Path 428" d="M452.857,341.194H348.793A6.3,6.3,0,0,1,342.5,334.9V144.479a6.3,6.3,0,0,1,6.294-6.294H452.857a6.3,6.3,0,0,1,6.294,6.294V334.9A6.3,6.3,0,0,1,452.857,341.194ZM348.793,140.274a4.209,4.209,0,0,0-4.2,4.2V334.9a4.209,4.209,0,0,0,4.2,4.2H452.857a4.209,4.209,0,0,0,4.2-4.2V144.479a4.209,4.209,0,0,0-4.2-4.2Z" transform="translate(-268.108 -108.239)" fill="#f0f2f5"/>
    <rect id="Rectangle_119" data-name="Rectangle 119" width="114" height="2" transform="translate(75.872 61.408)" fill="#f0f2f5"/>
    <rect id="Rectangle_120" data-name="Rectangle 120" width="114" height="2" transform="translate(75.872 96.401)" fill="#f0f2f5"/>
    <rect id="Rectangle_121" data-name="Rectangle 121" width="2.089" height="95.062" transform="translate(110.528 30.991)" fill="#f0f2f5"/>
    <rect id="Rectangle_122" data-name="Rectangle 122" width="2.089" height="95.062" transform="translate(152.779 30.991)" fill="#f0f2f5"/>
    <path id="Path_429" data-name="Path 429" d="M437.6,702.489H300.4a9.4,9.4,0,1,1,0-18.8H437.6a9.4,9.4,0,1,1,0,18.8Z" transform="translate(-234.533 -463.838)" fill="#f0f2f5"/>
    <rect id="Rectangle_123" data-name="Rectangle 123" width="114" height="7" transform="translate(75.872 121.396)" fill="#f0f2f5"/>
    <path id="Path_430" data-name="Path 430" d="M387.232,408.336l-.145-.07c-7.762-3.75-17.927-3.746-32.96.012l-.16.04-.048-.158c-1.59-5.214-3.392-11.12-.007-14.025.047-8.526,7.526-15.449,16.713-15.449s16.662,6.92,16.713,15.444c5.034,3.849,2.635,9.537-.024,14.069Z" transform="translate(-274.265 -265.017)" fill="#2f2e41"/>
    <path id="Path_431" data-name="Path 431" d="M522.125,400.482a4.821,4.821,0,0,1-6.493,3.533L488.2,431.582l-2.448-8.559L513,397.424a4.847,4.847,0,0,1,9.127,3.059Z" transform="translate(-361.506 -275.422)" fill="#ffb6b6"/>
    <path id="Path_432" data-name="Path 432" d="M394.573,445.385s-2.489,5.64,3.652,9.118,27.6-1.327,31.086-2,16.49-20.136,16.49-20.136l-1.839-9.546L426.712,437.8Z" transform="translate(-301.718 -293.788)" fill="#1b4d36"/>
    <path id="Path_433" data-name="Path 433" d="M382.185,576.937l.348,6.616s-1.028,5.861-.183,7.125,23.731,1.417,23.731,1.417,1.513-8.154,2.815-15.291Z" transform="translate(-293.844 -394.16)" fill="#ffb6b6"/>
    <path id="Path_434" data-name="Path 434" d="M436.187,738.228l4.786-.967-1.37-19.331-7.063,1.427Z" transform="translate(-282.093 -467.988)" fill="#ffb6b6"/>
    <path id="Path_435" data-name="Path 435" d="M447.934,665.613l4.449-2-5.772-18.5-6.567,2.953Z" transform="translate(-286.99 -420.528)" fill="#ffb6b6"/>
    <path id="Path_436" data-name="Path 436" d="M447.251,636.273l-8.377,4.743-20.66-33.2c-14.5,9.771-28.686,14.451-42.984,16.948-4.834.861-9.762.424-10.69-4.5q-.065-.345-.1-.694c-.571-5.374,6.114-12.262,6.964-18.838l18.3-1.1,2.256,2.893,21.158-13.008a9.083,9.083,0,0,1,12.5,3.16q.21.345.389.708Z" transform="translate(-282.377 -401.61)" fill="#2f2e41"/>
    <path id="Path_437" data-name="Path 437" d="M435.456,677.312l-9.586.891-17.38-35.546c-17.235,2.964-33.495,3.914-47.559.328A9.091,9.091,0,0,1,354.43,632q.082-.341.19-.675c1.683-5.135,6.089-8.769,9.561-14.417l25.356.385-2.832,9.772,24.631-3.187a9.083,9.083,0,0,1,10.1,8.008q.05.4.065.805Z" transform="translate(-275.703 -420.315)" fill="#2f2e41"/>
    <circle id="Ellipse_53" data-name="Ellipse 53" cx="10.296" cy="10.296" r="10.296" transform="translate(87.948 117.674)" fill="#ffb6b6"/>
    <path id="Path_438" data-name="Path 438" d="M378.3,460l9.44,1.111a1.926,1.926,0,0,1,1.657,1.5l1.5,6.87,9.359,11.021a23.108,23.108,0,0,1,2.1,13.443c-1.26,7.141-1.814,12.448-1.814,12.448s-25.105,9.413-25.945,8.153-1.113-6.985-1.113-6.985l-3.361-37.388s3.781-6.3,5.881-6.3C377.358,463.825,377.184,460.774,378.3,460Z" transform="translate(-286.087 -318.023)" fill="#1b4d36"/>
    <ellipse id="Ellipse_54" data-name="Ellipse 54" cx="2.397" cy="2.876" rx="2.397" ry="2.876" transform="translate(112.288 184.911)" fill="#6c63ff"/>
    <path id="Path_439" data-name="Path 439" d="M564.693,807.269l7.3-3.657,1.375,3.208,9.226,1.865a2.18,2.18,0,0,1,.427,4.141l-8.915,3.821-2.9-2.515.76,3.431L568.606,819Z" transform="translate(-412.981 -542.005)" fill="#2f2e41"/>
    <path id="Path_440" data-name="Path 440" d="M585.2,744.66l7.231-3.784,1.431,3.183,9.258,1.7a2.18,2.18,0,0,1,.5,4.133l-8.846,3.977-2.941-2.463.82,3.417-3.335,1.5Z" transform="translate(-426.358 -501.114)" fill="#2f2e41"/>
    <path id="Path_441" data-name="Path 441" d="M379.674,387.149a13.176,13.176,0,0,1-7.6-2.4L372,384.7v-.091a9.935,9.935,0,0,1,9.924-9.924H386.1a9.935,9.935,0,0,1,9.924,9.924,2.311,2.311,0,0,1-2.26,2.3l-13.858.239C379.831,387.149,379.752,387.149,379.674,387.149Z" transform="translate(-287.31 -262.407)" fill="#2f2e41"/>
    <ellipse id="Ellipse_55" data-name="Ellipse 55" cx="2.786" cy="3.83" rx="2.786" ry="3.83" transform="translate(103.155 115.055) rotate(-30)" fill="#2f2e41"/>
    <ellipse id="Ellipse_56" data-name="Ellipse 56" cx="3.83" cy="2.786" rx="3.83" ry="2.786" transform="translate(81.935 117.021) rotate(-45)" fill="#2f2e41"/>
    <path id="Path_442" data-name="Path 442" d="M617.935,662.185H607.658a1.591,1.591,0,0,0-1.218.563,2.437,2.437,0,1,0,.629,4.587l.852,2.77a1.606,1.606,0,0,0,1.535,1.134h6.682a1.606,1.606,0,0,0,1.535-1.134l1.8-5.842a1.606,1.606,0,0,0-1.535-2.078Zm-11.929,4.7a1.741,1.741,0,1,1,0-3.482c.032,0,.061.008.093.009a1.59,1.59,0,0,0,.024.85l.735,2.39a1.719,1.719,0,0,1-.853.232Z" transform="translate(-438.329 -449.814)" fill="#3f3d56"/>
    <path id="Path_443" data-name="Path 443" d="M439.068,587.365a4.821,4.821,0,0,1-5.248-5.206l-34.278-18.369,7.5-4.8,32.34,18.754a4.847,4.847,0,0,1-.311,9.621Z" transform="translate(-305.281 -382.549)" fill="#ffb6b6"/>
    <path id="Path_444" data-name="Path 444" d="M369.5,475.784s-6.117-.766-7.687,6.115,9.191,26.063,10.833,29.206,24.021,10.019,24.021,10.019l8.617-4.5-19.295-12.229Z" transform="translate(-280.572 -328.297)" fill="#1b4d36"/>
    <path id="Path_445" data-name="Path 445" d="M372.33,342h2.089a3.83,3.83,0,0,1,3.83,3.83H368.5A3.83,3.83,0,0,1,372.33,342Z" transform="translate(-240.328 -222.933)" fill="#f0f2f5"/>
    <circle id="Ellipse_57" data-name="Ellipse 57" cx="20.699" cy="20.699" r="20.699" transform="translate(45.198 6.226)" fill="#f05454"/>
    <path id="Path_446" data-name="Path 446" d="M373.6,97.19c-5.478-5.746-11.84-10.989-19.371-13.759a31.136,31.136,0,0,0-6.488-1.63c-.018,0-.035,0-.052,0a.959.959,0,0,0-.109-.021,24.976,24.976,0,0,0-9.27.56,25.613,25.613,0,0,0-4.316,1.5,37.745,37.745,0,0,0-4.05,2.3,26.343,26.343,0,0,1-8.95,3.339,30.11,30.11,0,0,1-4.807.472,11.611,11.611,0,0,0-4.044.582,9.706,9.706,0,0,0-5.911,6.4.629.629,0,0,0,.28.688c.359.257.708.548,1.085.777a3.384,3.384,0,0,0,1.06.289q.9.19,1.8.368,3.318.657,6.664,1.164,6.77,1.025,13.613,1.444a151.577,151.577,0,0,0,27.4-.823,152.1,152.1,0,0,0,15.2-2.629.614.614,0,0,0,.269-1.018Z" transform="translate(-244.415 -71.344)" fill="#fff"/>
    <path id="Path_447" data-name="Path 447" d="M230.684,162.688a31.135,31.135,0,0,0-6.488-1.63c-.018,0-.035,0-.052,0a.956.956,0,0,0-.109-.021,24.976,24.976,0,0,0-9.27.56,25.614,25.614,0,0,0-4.316,1.5,37.751,37.751,0,0,0-4.05,2.3,26.343,26.343,0,0,1-8.95,3.339,30.11,30.11,0,0,1-4.807.472,11.611,11.611,0,0,0-4.044.582,9.706,9.706,0,0,0-5.911,6.4.629.629,0,0,0,.28.688c.359.257.708.548,1.085.777a3.384,3.384,0,0,0,1.06.289q.9.19,1.8.368,3.318.657,6.664,1.164,6.77,1.025,13.613,1.444a151.58,151.58,0,0,0,27.4-.823,152.106,152.106,0,0,0,15.2-2.629.614.614,0,0,0,.269-1.017C244.577,170.7,238.215,165.458,230.684,162.688Z" transform="translate(-163.805 -123.002)" fill="#fff"/>
    <path id="Path_448" data-name="Path 448" d="M567.42,517.959,551.5,497.048l-12.559,7.1,26.614,31.6Z" transform="translate(-351.501 -324.005)" fill="#3f3d56"/>
    <path id="Path_449" data-name="Path 449" d="M769.286,422.9a114.679,114.679,0,0,0,4.046,25.911q-.752,1.771-1.553,3.517A131.83,131.83,0,0,1,765,465.2a134.247,134.247,0,0,1-25.89,31.287q-1.651,1.468-3.346,2.887a62.721,62.721,0,0,1-11.3-28.783c-.174-1.281-.317-2.577-.425-3.865v-.007a82.441,82.441,0,0,1-.254-9.416c0-.251.01-.5.021-.759.122-3.357.425-6.721.881-10.053v0c.052-.383.1-.766.164-1.149.167-1.149.355-2.3.561-3.44a139.345,139.345,0,0,1,4.993-19.427v0c.059-.185.118-.366.185-.547.23-.69.463-1.372.7-2.054a1.209,1.209,0,0,1,.056-.157q.465-1.337.951-2.653.131-.366.272-.731c.366-.978.738-1.95,1.118-2.908.118-.306.24-.613.362-.916.094-.233.185-.467.282-.7v0q.831-2.053,1.682-4.025c1.591-3.7,3.228-7.177,4.823-10.384l0,0a190.781,190.781,0,0,1,12.637-21.9l22.6,7.313c-2.7,4.781-4.781,11.832-5.923,20.151a112.494,112.494,0,0,0-.867,19.953Z" transform="translate(-516.746 -262.958)" fill="#3f3d56"/>
    <path id="Path_450" data-name="Path 450" d="M660.405,486.6c-.132-.31-.282-.613-.435-.916a17.156,17.156,0,0,0-3.033-4.179c-.181-.185-.369-.369-.564-.543a16.964,16.964,0,0,0-15.837-3.921l-.014.007-.1.028.024.118a9.851,9.851,0,0,0,.453,1.619c.052.143.111.279.171.414.024.063.056.118.084.181,0,0,0,0,0,0s0,.007,0,.01c.066.129.129.261.2.387-.143-.136-.279-.275-.411-.418s-.247-.272-.366-.411a11.54,11.54,0,0,1-1.1-1.511l-.056-.094-.1.038a17.1,17.1,0,0,0-3.733,1.828l-.125.084a7.592,7.592,0,0,1-6.1,1,12.089,12.089,0,0,0-9.607,1.57,11.944,11.944,0,0,0-2.5,2.18c-.063.073-.125.15-.188.223-.132.16-.258.324-.38.491a11.931,11.931,0,0,0-2.323,6l-.007.08.066.045a10.347,10.347,0,0,0,3.914,1.63,11.712,11.712,0,0,1-2.66.066h0a10.777,10.777,0,0,1-1.2-.167l-.073-.014h0l-.091-.017.014.167a11.978,11.978,0,0,0,1.94,5.972l.035.049a.486.486,0,0,1,.035.056,12.535,12.535,0,0,1,1.226,2.406,11.463,11.463,0,0,1,.515,6.585,12.015,12.015,0,0,0,10.819,14.67c.289.024.581.038.874.038a12.005,12.005,0,0,0,4.865-1.013l.056-.021.014-.063a11.784,11.784,0,0,1,1.233-2.709,8.208,8.208,0,0,0-.258,2.044v.23l.2-.115c.171-.1.345-.209.5-.31a12.266,12.266,0,0,0,2.531-2.2c.289-.334.582-.658.888-.982l0,0c.6-.634,1.226-1.254,1.88-1.846a35.159,35.159,0,0,1,4.457-3.4,38.407,38.407,0,0,1,4.92-2.674h0c.191-.091.387-.178.578-.261a16.974,16.974,0,0,0,2.441-1.309c.028-.017.052-.031.077-.049a16.99,16.99,0,0,0,6.24-21.067Z" transform="translate(-445.366 -328.767)" fill="#50cb93"/>
    <path id="Path_451" data-name="Path 451" d="M625.313,568.919a12.013,12.013,0,0,0-.216,1.283,12.162,12.162,0,0,1-.272-6.329c.073-.321.127-.645.169-.972A11.414,11.414,0,0,1,625.313,568.919Z" transform="translate(-451.995 -385.096)" opacity="0.15"/>
    <path id="Path_452" data-name="Path 452" d="M620.4,533.872a11.714,11.714,0,0,1-3.11.015,12.048,12.048,0,0,1-.7-1.583,10.2,10.2,0,0,0,3.809,1.568Z" transform="translate(-446.821 -365.15)" opacity="0.15"/>
    <path id="Path_453" data-name="Path 453" d="M615.9,522.13a12.106,12.106,0,0,0-.753,3.031,11.967,11.967,0,0,1-.558-3.053l-.009-.167.164.032A11.616,11.616,0,0,0,615.9,522.13Z" transform="translate(-445.504 -358.395)" opacity="0.15"/>
    <path id="Path_454" data-name="Path 454" d="M620.106,481.6a12.059,12.059,0,0,1,9.6-1.572,7.579,7.579,0,0,0,6.1-.994l.126-.083a17.049,17.049,0,0,1,3.731-1.832l.1-.035.055.091a11.534,11.534,0,0,0,1.872,2.342,8.843,8.843,0,0,1-.912-2.615l-.024-.121.119-.031a16.965,16.965,0,0,1,21.282,17.306,16.968,16.968,0,0,0-20.794-12.26l-.119.031.024.121a8.845,8.845,0,0,0,.912,2.615,11.533,11.533,0,0,1-1.872-2.342l-.055-.091-.1.035A17.047,17.047,0,0,0,636.422,484l-.126.083a7.579,7.579,0,0,1-6.1.994,12.033,12.033,0,0,0-13.859,6.416,14.581,14.581,0,0,1-1.565-.874l-.068-.043.008-.08A11.985,11.985,0,0,1,620.106,481.6Z" transform="translate(-445.617 -328.57)" opacity="0.15"/>
    <path id="Path_455" data-name="Path 455" d="M736.146,158.888l-.331-.219-.24.313a28.493,28.493,0,0,0-4.384,7.762,37.172,37.172,0,0,1,1.678-9.5l.1-.324-.3-.171a54.909,54.909,0,0,0-12.362-5.126l-.47-.125a24.4,24.4,0,0,1-15.374-12.633,38.78,38.78,0,0,0-38.8-21.063h0c-.084.007-.171.017-.254.028-.143.014-.282.031-.421.049-.286.038-.564.077-.843.118-.237.035-.477.073-.714.115-.125.017-.247.038-.369.063s-.247.042-.369.066h0a38.392,38.392,0,0,0-6.846,1.967h0v0l-.561.219q-.867.355-1.72.752c-.129.059-.254.122-.383.181-.035.017-.073.035-.108.056-.366.174-.728.355-1.086.547-.052.024-.1.052-.157.08l-.334.178q-1.1.6-2.166,1.264c-.059.035-.115.07-.174.108l-.192.125c-.038.021-.077.049-.115.073-.108.066-.212.136-.317.209-.209.136-.418.275-.623.418s-.421.292-.63.442l-.209.15.038.258c.035.212.066.425.1.634s.07.414.108.62c.059.345.125.686.192,1.017.045.219.087.435.136.648s.094.439.146.658c.1.453.209.891.324,1.323.056.216.115.432.178.644.035.129.07.258.108.383l.084.261c.007.028.014.059.024.091a.809.809,0,0,0,.028.087q.057.193.115.376c.021.066.042.132.066.195.049.15.1.3.153.449.056.167.115.334.174.5.014.042.028.08.042.122s.021.063.035.094.028.073.042.108c.059.157.118.317.181.474.021.056.042.115.066.171a24.942,24.942,0,0,0,2.072,4.074q-1.353-1.16-2.6-2.458a37.484,37.484,0,0,1-3.552-4.287c-.087-.118-.174-.24-.254-.362-.164-.233-.324-.467-.481-.7s-.327-.5-.484-.749c-.1-.167-.209-.338-.31-.5s-.2-.317-.286-.477l-.272-.467h0v0l-.383.376c-.153.15-.306.3-.456.449a38.7,38.7,0,0,0-9.844,16.941l-.052.192-.052.2c-.1.355-.2.7-.31,1.052v0c-.1.348-.216.7-.334,1.038-.108.324-.219.644-.338.965q-.057.162-.125.324c-.073.209-.153.414-.233.623-.038.094-.077.192-.115.286-.094.23-.188.46-.282.686-.014.035-.031.073-.049.108-.028.07-.059.139-.087.205-.073.167-.15.338-.223.5-.052.108-.1.219-.15.327-.021.049-.045.1-.066.146-.129.279-.261.554-.4.825-.157.32-.317.641-.488.954-.15.292-.306.578-.47.864-.282.5-.578,1.006-.885,1.494-.118.188-.237.376-.359.564-.028.045-.056.091-.084.132-.1.164-.205.32-.313.481-.073.108-.146.216-.219.32-.122.188-.251.369-.383.547-.035.056-.073.108-.111.16-.2.272-.39.536-.589.8-.007,0-.007.007-.01.01s-.007,0-.01.007c-.087.115-.174.23-.265.341-.118.164-.247.324-.376.481-.209.265-.428.533-.651.794-.007.007-.01.014-.017.017a37.1,37.1,0,0,1-3.74,3.8c-.024.021-.042.042-.066.059-.188.164-.376.327-.571.487l-.24.2c-.132.111-.268.223-.4.324a.277.277,0,0,1-.052.042c-.118.1-.233.188-.352.279-.143.115-.286.223-.432.331q-1.034.783-2.124,1.48c-.108.073-.223.146-.334.216-.066.042-.132.084-.2.118-.265.164-.529.324-.794.477s-.536.306-.8.453c-.575.313-1.142.641-1.7.982-.279.174-.557.348-.832.526q-1.64,1.066-3.158,2.281a38.562,38.562,0,0,0-2.908,2.58q-.172.167-.345.345c-.23.226-.453.456-.665.686-.341.352-.669.714-.992,1.079a39.134,39.134,0,0,0-4.513,6.275,36.892,36.892,0,0,0-1.769,3.444c-.4.881-.766,1.783-1.1,2.7q-.329.914-.616,1.846c-.094.31-.185.623-.272.937-.3,1.062-.543,2.135-.745,3.211q-.245,1.3-.4,2.594c-.052.435-.094.871-.132,1.3q-.134,1.592-.137,3.187a38.761,38.761,0,0,0,1.154,9.464q.256,1.024.568,2.037c.1.338.216.672.327,1.006q.423,1.254.937,2.483.308.736.648,1.462a38.865,38.865,0,0,0,5.46,8.552q.538.642,1.111,1.264s0,0,0,0a38.614,38.614,0,0,0,3.005,2.939h0q.632.559,1.285,1.083s0,0,0,0c.439.355.881.7,1.334,1.027q.339.245.689.491.684.486,1.4.937h0q.71.46,1.442.877c.978.561,1.981,1.086,3.012,1.563l.174.08.178-.08a38.115,38.115,0,0,1,5.1-1.87c.383-.111.77-.212,1.153-.31q1.452-.36,2.925-.606a24.064,24.064,0,0,0-2.765,1.626c-.686.463-1.361.968-2.041,1.525-.226.185-.453.376-.679.571l-.564.487.707.233c.258.084.515.167.773.244.352.111.7.212,1.041.306q1.118.313,2.25.554l.55.115c.359.07.721.139,1.083.2a.239.239,0,0,0,.045.007c.376.063.756.122,1.132.174q1.05.151,2.1.24c.077.01.153.014.233.017.171.014.338.028.508.038.376.024.756.042,1.135.056.028,0,.052,0,.08,0,.192.007.383.014.575.017,0,0,0,0,0,0,.192,0,.383.007.575.007h1.059c.2,0,.4,0,.6,0,.279,0,.561,0,.839.007.073,0,.15,0,.226,0,.446.007.891.017,1.337.028.028,0,.056,0,.084,0,.446.014.891.028,1.337.049.1,0,.2.007.3.014q.642.026,1.285.063c.122.007.247.017.373.024.324.017.651.038.975.063.192.01.38.024.571.042.773.059,1.543.125,2.316.2.258.021.515.049.773.077q1.034.11,2.075.24c.31.035.62.077.93.118.035,0,.07.007.1.014.383.052.763.1,1.146.16.251.035.5.073.752.111s.515.077.773.122c.139.021.279.045.421.07.334.052.672.108,1.01.171a.815.815,0,0,1,.091.014c.717.125,1.438.258,2.155.4.421.08.839.164,1.257.251.327.066.655.136.982.205.056.01.111.024.167.038a.179.179,0,0,0,.038.007c.494.108.992.219,1.487.338q2.575.6,5.143,1.323c.393.108.787.223,1.18.338l.494.146c.341.1.679.2,1.02.31.3.091.6.185.9.282.188.059.376.118.564.181.292.091.585.185.874.286.247.077.491.157.735.244.348.115.7.233,1.048.359.1.035.205.07.306.108.425.146.85.3,1.274.453s.829.3,1.24.456c.286.108.571.212.853.324.317.122.634.244.947.369.453.178.909.359,1.362.543.418.167.832.338,1.25.515.077.031.157.063.233.1.362.15.724.306,1.083.463.233.1.463.2.693.3q1.5.658,3.005,1.362h0c.627.3,1.264.578,1.9.846.15.063.3.125.453.185.254.108.512.209.77.313.167.066.334.132.5.195.247.1.5.192.749.282s.526.195.794.286c.094.035.188.066.286.1.31.1.62.209.933.31l.1.031c.327.1.655.209.985.306a.693.693,0,0,0,.08.024c.355.108.717.212,1.076.313.529.146,1.062.286,1.595.414.1.024.195.049.292.07.286.07.568.136.853.2.3.07.609.132.912.2s.613.125.916.181c.164.031.327.063.487.091l.428.073c.3.052.592.1.891.146a.068.068,0,0,1,.024,0c.338.052.672.1,1.01.143s.648.084.971.122l.205.021c.268.031.536.063.8.087l.23.021c.265.024.529.049.794.066a1.239,1.239,0,0,0,.16.01c.237.021.474.038.71.049.167.014.331.021.5.031l.258.01c.23.014.46.021.693.028.282.01.564.017.843.024.338.007.679.01,1.017.01h.007c.331,0,.665,0,1-.01h.125l.366-.01c.188,0,.376-.01.561-.017.355-.014.707-.031,1.059-.052.139-.007.282-.017.421-.024.063,0,.129-.01.192-.014.219-.014.435-.028.655-.045s.456-.038.682-.063c.292-.028.585-.059.878-.091.23-.024.46-.052.686-.08a.709.709,0,0,0,.091-.014c.219-.024.439-.052.655-.084.258-.035.512-.073.766-.111l.08-.01c.439-.07.881-.139,1.323-.219.463-.084.926-.174,1.386-.268.171-.035.338-.073.508-.108.094-.021.192-.038.282-.059.143-.031.282-.063.421-.1l.077-.014c.195-.042.386-.091.582-.139.39-.094.773-.192,1.156-.3.171-.042.341-.087.5-.132l.143-.042q1.06-.3,2.1-.63c.306-.1.609-.2.912-.306q.977-.334,1.936-.7c.171-.063.341-.132.512-.2l.749-.3c.223-.094.446-.188.672-.286.111-.045.223-.094.334-.143.334-.146.669-.3,1-.446.223-.1.442-.205.662-.31.348-.167.693-.338,1.038-.508.087-.045.171-.091.254-.132.219-.111.439-.226.661-.338.352-.188.7-.376,1.052-.571.118-.063.233-.129.352-.195q.575-.324,1.139-.658,1.248-.747,2.462-1.56c.2-.132.4-.272.6-.407.376-.258.745-.522,1.114-.787.038-.028.073-.056.111-.08.185-.136.369-.272.554-.411.383-.289.763-.582,1.142-.881.007,0,.017-.014.028-.021.171-.136.341-.272.508-.407.519-.421,1.031-.85,1.532-1.292.247-.212.491-.432.731-.651.181-.164.362-.327.54-.494.359-.338.71-.672,1.059-1.013.174-.167.345-.341.519-.515s.345-.348.515-.526c.059-.059.118-.122.178-.185.174-.185.348-.373.522-.557.15-.16.3-.327.446-.494.251-.279.5-.557.752-.839a.53.53,0,0,1,.042-.045c.014-.017.028-.031.038-.045h0a54.646,54.646,0,0,0-10.889-81.123Z" transform="translate(-432.347 -94.803)" fill="#50cb93"/>
    <g id="Group_354" data-name="Group 354" transform="translate(161.772 22.993)" opacity="0.15">
      <path id="Path_456" data-name="Path 456" d="M794.009,118.217a27.366,27.366,0,0,0,3.1,7.076,37.67,37.67,0,0,1-6.074-6.633Q792.513,118.38,794.009,118.217Z" transform="translate(-722.464 -118.217)"/>
      <path id="Path_457" data-name="Path 457" d="M688.549,176.225a38.9,38.9,0,0,0-7.183,5.049,39.6,39.6,0,0,0,7.942-15.06c.018-.066.037-.133.055-.2l.052-.188a38.713,38.713,0,0,1,10.3-17.395l.386-.376.272.465a37.851,37.851,0,0,0,5.369,7.075A37.732,37.732,0,0,1,688.549,176.225Z" transform="translate(-650.982 -137.665)"/>
      <path id="Path_458" data-name="Path 458" d="M748.93,137.565l-.052.188c-.018.067-.037.134-.055.2-.1.366-.21.73-.321,1.092a40.346,40.346,0,0,1-2.306-8.85l-.041-.257.211-.151a39.055,39.055,0,0,1,8.566-4.657A38.8,38.8,0,0,0,748.93,137.565Z" transform="translate(-693.211 -122.723)"/>
      <path id="Path_459" data-name="Path 459" d="M614.391,258.842a35.025,35.025,0,0,0,6.365-4.468,38.7,38.7,0,0,0,13.021,60.3l.176.081.176-.079a37.132,37.132,0,0,1,9.178-2.787,26.523,26.523,0,0,0-5.485,3.724l-.563.487.707.233c.61.2,1.22.387,1.813.552a39.076,39.076,0,0,0,10.705,1.432c16.436-.105,33,3.695,49.231,11.294a55.3,55.3,0,0,0,8.632,3.19,54.417,54.417,0,0,0,38.688-3.629,54.716,54.716,0,0,1-55.973,16.949,55.308,55.308,0,0,1-8.631-3.19c-16.231-7.6-32.8-11.4-49.231-11.294a39.08,39.08,0,0,1-10.705-1.432c-.593-.165-1.2-.35-1.813-.552l-.707-.233.563-.487a26.521,26.521,0,0,1,5.485-3.724A37.128,37.128,0,0,0,616.843,328l-.176.079-.176-.081a38.722,38.722,0,0,1-2.1-69.154Z" transform="translate(-594.109 -206.962)"/>
    </g>
  </g>
</svg>
