<svg id="investor" xmlns="http://www.w3.org/2000/svg" width="70" height="70" viewBox="0 0 70 70">
  <g id="Group_162" data-name="Group 162">
    <rect id="Rectangle_28" data-name="Rectangle 28" width="70" height="70" fill="none"/>
  </g>
  <g id="Group_163" data-name="Group 163" transform="translate(2 2)">
    <path id="Path_28" data-name="Path 28" d="M35,2A33,33,0,1,0,68,35,33.012,33.012,0,0,0,35,2Zm2.9,52.008V55.2A2.908,2.908,0,0,1,35,58.1h0a2.908,2.908,0,0,1-2.9-2.9V53.81a13.231,13.231,0,0,1-8.877-6.93A2.845,2.845,0,0,1,24.7,42.986l.231-.1A2.807,2.807,0,0,1,28.5,44.174a7.722,7.722,0,0,0,7,4.521c3.069,0,6.534-1.584,6.534-5.313,0-3.168-2.31-4.818-7.524-6.7C30.875,35.4,23.45,33.284,23.45,25.76c0-.33.033-7.92,8.646-9.768V14.8A2.908,2.908,0,0,1,35,11.9h0a2.908,2.908,0,0,1,2.9,2.9v1.221a11.183,11.183,0,0,1,7.128,4.29,2.8,2.8,0,0,1-1.188,4.29h0a2.883,2.883,0,0,1-3.366-.924A6.273,6.273,0,0,0,35.2,21.14c-2.31,0-5.973,1.221-5.973,4.587,0,3.135,2.838,4.323,8.712,6.27,7.92,2.739,9.933,6.765,9.933,11.385C47.87,52.061,39.62,53.711,37.9,54.008Z" transform="translate(-2 -2)" fill="#50cb93"/>
  </g>
</svg>
