<svg xmlns="http://www.w3.org/2000/svg" width="319" height="251" viewBox="0 0 319 251">
  <g id="Group_351" data-name="Group 351" transform="translate(0 0)">
    <path id="Path_133" data-name="Path 133" d="M849.328,582.48a95.636,95.636,0,0,1-20.866,16.835c-.177.109-.357.211-.537.316l-12.484-11.05c.131-.122.276-.258.433-.409,9.3-8.833,55.482-70.591,58.559-85.629C874.22,503.8,877.208,552.93,849.328,582.48Z" transform="translate(-559.027 -353.351)" fill="#24885c"/>
    <path id="Path_134" data-name="Path 134" d="M837.362,680.262c-.236.056-.476.109-.717.157l-9.366-8.29c.183-.064.4-.14.642-.224,4.018-1.423,15.987-5.719,27.9-10.611,12.8-5.259,25.535-11.2,28.275-15.008C883.506,647.17,865.4,673.991,837.362,680.262Z" transform="translate(-565.518 -432.165)" fill="#60af8c"/>
    <path id="Path_371" data-name="Path 371" d="M743.149,247.6h-1.334V211.075a21.144,21.144,0,0,0-21.148-21.141H643.255a21.144,21.144,0,0,0-21.148,21.141V411.464A21.144,21.144,0,0,0,643.255,432.6h77.413a21.144,21.144,0,0,0,21.148-21.141V273.6h1.334Z" transform="translate(-453.02 -181.863)" fill="#3f3d56"/>
    <path id="Path_372" data-name="Path 372" d="M744.4,217.9V418a15.787,15.787,0,0,1-15.8,15.784H650.817a15.786,15.786,0,0,1-15.79-15.785V217.9a15.786,15.786,0,0,1,15.791-15.784h9.439a7.5,7.5,0,0,0,6.949,10.331h44.348a7.5,7.5,0,0,0,6.949-10.331h10.1A15.787,15.787,0,0,1,744.4,217.9Z" transform="translate(-460.104 -188.543)" fill="#fff"/>
    <path id="Path_373" data-name="Path 373" d="M735.116,453.66H666.745a4.522,4.522,0,0,1-4.517-4.517v-2.248a4.522,4.522,0,0,1,4.517-4.517h68.371a4.522,4.522,0,0,1,4.517,4.517v2.248A4.522,4.522,0,0,1,735.116,453.66Z" transform="translate(-474.84 -320.321)" fill="#f0f0f0"/>
    <path id="Path_374" data-name="Path 374" d="M735.116,496.567H666.745a4.522,4.522,0,0,1-4.517-4.517V489.8a4.522,4.522,0,0,1,4.517-4.517h68.371a4.522,4.522,0,0,1,4.517,4.517v2.248A4.522,4.522,0,0,1,735.116,496.567Z" transform="translate(-474.84 -343.854)" fill="#f0f0f0"/>
    <path id="Path_375" data-name="Path 375" d="M742.413,443.515H674.043a4.748,4.748,0,0,1-4.743-4.743v-2.248a4.748,4.748,0,0,1,4.743-4.743h68.371a4.748,4.748,0,0,1,4.743,4.743v2.248A4.748,4.748,0,0,1,742.413,443.515Zm-68.371-10.83a3.844,3.844,0,0,0-3.839,3.839v2.248a3.844,3.844,0,0,0,3.839,3.839h68.371a3.844,3.844,0,0,0,3.839-3.839v-2.248a3.844,3.844,0,0,0-3.839-3.839Z" transform="translate(-478.729 -314.51)" fill="#3f3d56"/>
    <path id="Path_376" data-name="Path 376" d="M742.413,486.423H674.043a4.748,4.748,0,0,1-4.743-4.743v-2.248a4.748,4.748,0,0,1,4.743-4.743h68.371a4.748,4.748,0,0,1,4.743,4.743v2.248A4.748,4.748,0,0,1,742.413,486.423Zm-68.371-10.83a3.844,3.844,0,0,0-3.839,3.839v2.248a3.844,3.844,0,0,0,3.839,3.839h68.371a3.844,3.844,0,0,0,3.839-3.839v-2.248a3.844,3.844,0,0,0-3.839-3.839Z" transform="translate(-478.729 -338.043)" fill="#3f3d56"/>
    <path id="Path_377" data-name="Path 377" d="M805.947,217.907v43.539a46.768,46.768,0,0,1-58.667-45.2q0-1.915.154-3.791H773.1a7.5,7.5,0,0,0,6.949-10.335h10.1A15.79,15.79,0,0,1,805.947,217.907Z" transform="translate(-521.654 -188.543)" fill="#61ce8c"/>
    <path id="Path_378" data-name="Path 378" d="M674.331,666.945c0,.918-.034,1.824-.108,2.719H650.817a15.789,15.789,0,0,1-15.79-15.791V632.464a34.813,34.813,0,0,1,39.3,34.481Z" transform="translate(-459.806 -424.427)" fill="#50cb93"/>
    <path id="Path_379" data-name="Path 379" d="M294.754,556a2.713,2.713,0,0,0,3.573-1.385l21.085-47.786a6.043,6.043,0,0,0-7.714-8.074h0a5.962,5.962,0,0,0-3.049,2.611,6.16,6.16,0,0,0-.3.584l-21.085,47.786a2.71,2.71,0,0,0,1.386,3.574Z" transform="translate(-268.501 -351.028)" fill="#fcc"/>
    <path id="Path_380" data-name="Path 380" d="M331.479,525.3l-20.855-4.635,5.162-13.655a14.431,14.431,0,0,1,15.493-10.673l.2.022Z" transform="translate(-281.433 -349.874)" fill="#50cb93"/>
    <path id="Path_381" data-name="Path 381" d="M420.273,556.132a3.175,3.175,0,0,1-2.9-1.887l-21.085-47.786a6.5,6.5,0,0,1,11.568-5.871h0a6.6,6.6,0,0,1,.317.627L429.261,549a3.162,3.162,0,0,1-1.616,4.169l-6.306,2.782,0-.007A3.14,3.14,0,0,1,420.273,556.132Z" transform="translate(-328.291 -350.478)" fill="#fcc"/>
    <path id="Path_382" data-name="Path 382" d="M382.2,591.169a2.713,2.713,0,0,0-2.71,2.71v55.564a2.713,2.713,0,0,0,2.71,2.71h6.667a2.713,2.713,0,0,0,2.71-2.71V593.879a2.713,2.713,0,0,0-2.71-2.71Z" transform="translate(-319.347 -401.944)" fill="#fcc"/>
    <path id="Path_383" data-name="Path 383" d="M353,591.169a2.713,2.713,0,0,0-2.71,2.71v55.564a2.713,2.713,0,0,0,2.71,2.71h6.667a2.713,2.713,0,0,0,2.71-2.71V593.879a2.713,2.713,0,0,0-2.71-2.71Z" transform="translate(-303.185 -401.944)" fill="#fcc"/>
    <circle id="Ellipse_48" data-name="Ellipse 48" cx="23.036" cy="23.036" r="23.036" transform="translate(36.509 84.986)" fill="#fcc"/>
    <path id="Path_384" data-name="Path 384" d="M394.769,414.031a8.311,8.311,0,0,0,4.783-1.139A3.673,3.673,0,0,0,401,410.149a2.471,2.471,0,0,0-.84-2.03,3.189,3.189,0,0,0-3.016-.434l1.219-8.91-.9-.123-1.433,10.475.747-.343a2.735,2.735,0,0,1,2.8.025,1.588,1.588,0,0,1,.521,1.308,2.776,2.776,0,0,1-1.076,2.045,7.472,7.472,0,0,1-4.276.966Z" transform="translate(-327.729 -296.34)" fill="#2f2e41"/>
    <rect id="Rectangle_104" data-name="Rectangle 104" width="4.865" height="0.903" transform="translate(75.039 103.205)" fill="#2f2e41"/>
    <rect id="Rectangle_105" data-name="Rectangle 105" width="4.865" height="0.903" transform="translate(59.72 103.205)" fill="#2f2e41"/>
    <path id="Path_385" data-name="Path 385" d="M373.428,545.223,365.137,484.7a2.71,2.71,0,0,0-2.685-2.342h-6.259a2.721,2.721,0,0,0,.041-.452v-2.258a2.71,2.71,0,0,0-2.71-2.71H348.1a2.71,2.71,0,0,0-2.71,2.71V481.9a2.717,2.717,0,0,0,.041.452h-6.258a2.71,2.71,0,0,0-2.685,2.342L328.2,545.223a2.71,2.71,0,0,0,2.685,3.078h39.859a2.71,2.71,0,0,0,2.685-3.078Z" transform="translate(-291.057 -339.289)" fill="#50cb93"/>
    <path id="Path_386" data-name="Path 386" d="M399.8,525.3v-28.94l.2-.022a14.437,14.437,0,0,1,15.5,10.7l5.154,13.632Z" transform="translate(-330.512 -349.874)" fill="#50cb93"/>
    <path id="Path_387" data-name="Path 387" d="M338.791,395.332l-15.934-6.185c-2.605-1.011-5.226-1.992-7.817-3.038a8.91,8.91,0,0,1-3.009-1.773,5.913,5.913,0,0,1-1.5-2.9,29.908,29.908,0,0,1-.413-7.273,55.428,55.428,0,0,1,.642-7.788,37.62,37.62,0,0,1,4.811-13.723c4.469-7.332,12.167-12.848,21.023-12.408a18,18,0,0,1,11.269,4.478,7.115,7.115,0,0,0,1.064,1.031,1.476,1.476,0,0,0,.847.057q.558-.036,1.116-.055a23.054,23.054,0,0,1,3.869.162,12.25,12.25,0,0,1,6.383,2.65,7.784,7.784,0,0,1,2.888,5.212,6.17,6.17,0,0,1-2.084,5.037c-1.9,1.6-4.613,1.039-6.894.918l-8.353-.443-4.232-.224c-.871-.046-.869,1.309,0,1.355l11.249.6a49.182,49.182,0,0,0,5.48.222,6.131,6.131,0,0,0,3.764-1.514,7.511,7.511,0,0,0,2.275-7.047,10.074,10.074,0,0,0-5.062-6.43c-3.291-1.856-7.222-2.034-10.9-1.76l.479.2c-4.166-4.471-10.546-6.359-16.537-5.7a24.748,24.748,0,0,0-15.992,9.051,37.238,37.238,0,0,0-7.917,18.984,63.162,63.162,0,0,0-.489,11.238,14.16,14.16,0,0,0,.837,4.856,6.952,6.952,0,0,0,3.263,3.5,46.713,46.713,0,0,0,5.18,2.128l5.87,2.278L335.5,395.5l2.935,1.139c.813.316,1.166-.994.36-1.307Z" transform="translate(-280.406 -263.552)" fill="#2f2e41"/>
    <path id="Path_388" data-name="Path 388" d="M311.3,344.936a7,7,0,1,1,7-7A7,7,0,0,1,311.3,344.936Zm0-12.647a5.646,5.646,0,1,0,5.646,5.646A5.646,5.646,0,0,0,311.3,332.289Z" transform="translate(-277.964 -259.199)" fill="#2f2e41"/>
    <rect id="Rectangle_106" data-name="Rectangle 106" width="19.078" height="19.078" transform="matrix(0.794, 0.608, -0.608, 0.794, 134.878, 117.516)" fill="#5caa7b"/>
    <path id="Path_389" data-name="Path 389" d="M358.114,197.753a15.334,15.334,0,0,1,12.321,6.189l8.849-11.569-26.55-20.306-20.306,26.55,11.443,8.752a15.359,15.359,0,0,1,14.244-9.615Z" transform="translate(-293.389 -172.066)" fill="#24885c"/>
    <path id="Path_390" data-name="Path 390" d="M564.549,726.837h-318.1a.452.452,0,0,1,0-.9h318.1a.452.452,0,0,1,0,.9Z" transform="translate(-246 -475.837)" fill="#3f3d56"/>
    <path id="Path_391" data-name="Path 391" d="M735.8,548.308H703.342a4.522,4.522,0,0,1-4.517-4.517v-2.248a4.522,4.522,0,0,1,4.517-4.517H735.8a4.522,4.522,0,0,1,4.517,4.517v2.248A4.522,4.522,0,0,1,735.8,548.308Z" transform="translate(-494.874 -372.232)" fill="#50cb93"/>
    <path id="Path_392" data-name="Path 392" d="M743.1,538.163H710.64a4.748,4.748,0,0,1-4.743-4.743v-2.248a4.748,4.748,0,0,1,4.743-4.743H743.1a4.748,4.748,0,0,1,4.743,4.743v2.248A4.748,4.748,0,0,1,743.1,538.163Zm-32.46-10.83a3.844,3.844,0,0,0-3.839,3.839v2.248a3.844,3.844,0,0,0,3.839,3.839H743.1a3.844,3.844,0,0,0,3.839-3.839v-2.248a3.844,3.844,0,0,0-3.839-3.839Z" transform="translate(-498.762 -366.42)" fill="#3f3d56"/>
  </g>
</svg>
