<svg xmlns="http://www.w3.org/2000/svg" width="335" height="210" viewBox="0 0 335 210">
  <g id="Group_350" data-name="Group 350" transform="translate(0 0)">
    <path id="Path_352" data-name="Path 352" d="M1032.977,332.347h-.566V316.833a8.979,8.979,0,0,0-8.979-8.979h-32.87a8.979,8.979,0,0,0-8.979,8.979v85.114a8.98,8.98,0,0,0,8.979,8.979h32.87a8.979,8.979,0,0,0,8.979-8.98V343.391h.566Z" transform="translate(-697.977 -246.227)" fill="#3f3d56"/>
    <path id="Path_353" data-name="Path 353" d="M1036.158,323.757v84.99a6.707,6.707,0,0,1-6.706,6.707H996.424a6.7,6.7,0,0,1-6.7-6.706V323.757a6.7,6.7,0,0,1,6.7-6.7h4.007a3.187,3.187,0,0,0,2.95,4.388h18.831a3.181,3.181,0,0,0,2.95-4.388h4.29a6.706,6.706,0,0,1,6.707,6.7Z" transform="translate(-703.636 -252.624)" fill="#fafafa"/>
    <rect id="Rectangle_83" data-name="Rectangle 83" width="38.394" height="10.36" transform="translate(287.876 107.971)" fill="#34be82"/>
    <path id="Path_354" data-name="Path 354" d="M1039.689,462.823h-37.175a.915.915,0,0,1-.914-.914v-9.141a.915.915,0,0,1,.914-.914h37.175a.915.915,0,0,1,.914.914v9.141A.915.915,0,0,1,1039.689,462.823Zm-37.175-10.36a.305.305,0,0,0-.3.3v9.141a.305.305,0,0,0,.3.3h37.175a.3.3,0,0,0,.3-.3v-9.141a.305.305,0,0,0-.3-.3Z" transform="translate(-711.896 -346.312)" fill="#3f3d56"/>
    <rect id="Rectangle_84" data-name="Rectangle 84" width="4.875" height="0.609" transform="translate(292.142 113.758)" fill="#3f3d56"/>
    <rect id="Rectangle_85" data-name="Rectangle 85" width="4.875" height="0.609" transform="translate(298.846 113.758)" fill="#3f3d56"/>
    <rect id="Rectangle_86" data-name="Rectangle 86" width="4.875" height="0.609" transform="translate(305.549 113.758)" fill="#3f3d56"/>
    <rect id="Rectangle_87" data-name="Rectangle 87" width="4.875" height="0.609" transform="translate(312.253 113.758)" fill="#3f3d56"/>
    <rect id="Rectangle_88" data-name="Rectangle 88" width="4.875" height="0.609" transform="translate(318.957 113.758)" fill="#3f3d56"/>
    <path id="Path_355" data-name="Path 355" d="M1036.158,518.624v8.642a6.707,6.707,0,0,1-6.706,6.707H996.424a6.7,6.7,0,0,1-6.7-6.706V487.513Z" transform="translate(-703.636 -371.245)" opacity="0.1"/>
    <rect id="Rectangle_89" data-name="Rectangle 89" width="144.129" height="70.693" transform="translate(30.426 139.306)" fill="#34be82"/>
    <path id="Path_356" data-name="Path 356" d="M257.088,634.546H150.21a.611.611,0,0,1-.609-.609V564.462a.611.611,0,0,1,.609-.609h1.353Z" transform="translate(-119.175 -424.547)" opacity="0.1"/>
    <rect id="Rectangle_90" data-name="Rectangle 90" width="223.354" height="0.609" transform="translate(96.821 148.975)" fill="#3f3d56"/>
    <path id="Path_357" data-name="Path 357" d="M232.533,105.462H168.7v-1.316H139.754v1.316h-64.1a4.318,4.318,0,0,0-4.318,4.318v87.409a4.318,4.318,0,0,0,4.318,4.318H232.533a4.318,4.318,0,0,0,4.318-4.318V109.78a4.318,4.318,0,0,0-4.318-4.318Z" transform="translate(-64.76 -104.147)" fill="#3f3d56"/>
    <rect id="Rectangle_91" data-name="Rectangle 91" width="153.932" height="86.837" transform="translate(12.369 8.945)" fill="#fafafa"/>
    <circle id="Ellipse_39" data-name="Ellipse 39" cx="1.579" cy="1.579" r="1.579" transform="translate(87.535 3.421)" fill="#d4d4d4"/>
    <path id="Path_358" data-name="Path 358" d="M230.172,227.338h-3.657a.915.915,0,0,1-.914-.914v-3.657a.915.915,0,0,1,.914-.914h3.657a.915.915,0,0,1,.914.914v3.657A.915.915,0,0,1,230.172,227.338Zm-3.657-4.875a.305.305,0,0,0-.3.3v3.657a.305.305,0,0,0,.3.3h3.657a.305.305,0,0,0,.3-.3v-3.657a.305.305,0,0,0-.3-.3Z" transform="translate(-172.017 -185.987)" fill="#3f3d56"/>
    <rect id="Rectangle_92" data-name="Rectangle 92" width="69.475" height="0.609" transform="translate(53.821 40.742)" fill="#3f3d56"/>
    <rect id="Rectangle_93" data-name="Rectangle 93" width="16.15" height="4.875" transform="translate(105.274 57.286)" fill="#34be82"/>
    <path id="Path_359" data-name="Path 359" d="M416.446,292.338H401.515a.915.915,0,0,1-.914-.914v-3.657a.915.915,0,0,1,.914-.914h14.931a.915.915,0,0,1,.914.914v3.657A.915.915,0,0,1,416.446,292.338Zm-14.931-4.875a.305.305,0,0,0-.3.3v3.657a.305.305,0,0,0,.3.3h14.931a.305.305,0,0,0,.3-.3v-3.657a.305.305,0,0,0-.3-.3Z" transform="translate(-293.805 -231.39)" fill="#3f3d56"/>
    <rect id="Rectangle_94" data-name="Rectangle 94" width="30.471" height="21.33" transform="translate(214.236 62.729)" fill="#34be82"/>
    <path id="Path_360" data-name="Path 360" d="M794.072,323.9H764.82a1.22,1.22,0,0,1-1.219-1.219V302.572a1.22,1.22,0,0,1,1.219-1.219h29.252a1.22,1.22,0,0,1,1.219,1.219v20.111a1.22,1.22,0,0,1-1.219,1.219Zm-29.252-21.33v20.111h29.253V302.572Z" transform="translate(-546.323 -241.508)" fill="#3f3d56"/>
    <path id="Path_361" data-name="Path 361" d="M801.15,277.127h-1.219a10.056,10.056,0,0,0-20.111,0H778.6a11.274,11.274,0,1,1,22.549,0Z" transform="translate(-556.75 -216.77)" fill="#3f3d56"/>
    <path id="Path_362" data-name="Path 362" d="M811.694,323.391a3.047,3.047,0,1,0-4.66,2.582v3.271a1.613,1.613,0,0,0,1.613,1.613h0a1.613,1.613,0,0,0,1.613-1.613v-3.27A3.042,3.042,0,0,0,811.694,323.391Z" transform="translate(-575.518 -254.718)" fill="#3f3d56"/>
    <rect id="Rectangle_95" data-name="Rectangle 95" width="4.875" height="0.609" transform="translate(86.557 170.692)" fill="#3f3d56"/>
    <rect id="Rectangle_96" data-name="Rectangle 96" width="4.875" height="0.609" transform="translate(93.254 170.692)" fill="#3f3d56"/>
    <rect id="Rectangle_97" data-name="Rectangle 97" width="4.875" height="0.609" transform="translate(99.951 170.692)" fill="#3f3d56"/>
    <rect id="Rectangle_98" data-name="Rectangle 98" width="4.875" height="0.609" transform="translate(106.648 170.692)" fill="#3f3d56"/>
    <rect id="Rectangle_99" data-name="Rectangle 99" width="4.875" height="0.609" transform="translate(113.345 170.692)" fill="#3f3d56"/>
    <path id="Path_363" data-name="Path 363" d="M314.73,614.766H171.82a1.22,1.22,0,0,1-1.219-1.219V544.073a1.22,1.22,0,0,1,1.219-1.219H314.73a1.22,1.22,0,0,1,1.219,1.219v69.474A1.22,1.22,0,0,1,314.73,614.766ZM171.82,544.073v69.474H314.731V544.073Z" transform="translate(-133.776 -409.946)" fill="#3f3d56"/>
    <circle id="Ellipse_40" data-name="Ellipse 40" cx="1.828" cy="1.828" r="1.828" transform="translate(42.614 141.074)" fill="#3f3d56"/>
    <circle id="Ellipse_41" data-name="Ellipse 41" cx="1.828" cy="1.828" r="1.828" transform="translate(49.013 141.074)" fill="#3f3d56"/>
    <circle id="Ellipse_42" data-name="Ellipse 42" cx="1.828" cy="1.828" r="1.828" transform="translate(55.412 141.074)" fill="#3f3d56"/>
    <path id="Path_364" data-name="Path 364" d="M357.651,653.042H316.515a.915.915,0,0,1-.914-.914v-10.36a.915.915,0,0,1,.914-.914h41.136a.915.915,0,0,1,.914.914v10.36A.915.915,0,0,1,357.651,653.042Zm-41.136-11.579a.3.3,0,0,0-.3.3v10.36a.3.3,0,0,0,.3.3h41.136a.305.305,0,0,0,.3-.3v-10.36a.305.305,0,0,0-.3-.3Z" transform="translate(-234.686 -477.948)" fill="#3f3d56"/>
    <circle id="Ellipse_43" data-name="Ellipse 43" cx="5.485" cy="5.485" r="5.485" transform="translate(127.801 164.427)" fill="#e7eeeb"/>
    <path id="Path_365" data-name="Path 365" d="M480.391,653.432a5.79,5.79,0,1,1,5.79-5.79A5.79,5.79,0,0,1,480.391,653.432Zm0-10.97a5.18,5.18,0,1,0,5.18,5.18A5.18,5.18,0,0,0,480.391,642.462Z" transform="translate(-345.278 -478.642)" fill="#3f3d56"/>
    <path id="Path_366" data-name="Path 366" d="M437.387,542.077l-2.95-2.95.862-.862,1.925,1.925,5.373-7.635,1,.7Z" transform="translate(-302.195 -370.901)" fill="#3f3d56"/>
    <path id="Path_367" data-name="Path 367" d="M160.395,131.205H40.591V50.947Z" transform="translate(-28.222 -35.423)" opacity="0.1"/>
    <path id="Path_368" data-name="Path 368" d="M226.162,410.339H211.139v-1.082a.215.215,0,0,0-.215-.215h-5.151a.215.215,0,0,0-.215.215v1.082H202.34v-1.082a.215.215,0,0,0-.215-.215h-5.151a.215.215,0,0,0-.215.215v1.082h-3.219v-1.082a.215.215,0,0,0-.215-.215h-5.151a.215.215,0,0,0-.215.215v1.082h-3.219v-1.082a.215.215,0,0,0-.215-.215h-5.15a.215.215,0,0,0-.215.215v1.082h-3.219v-1.082a.215.215,0,0,0-.215-.215h-5.15a.215.215,0,0,0-.215.215v1.082h-3.219v-1.082a.215.215,0,0,0-.215-.215h-5.15a.215.215,0,0,0-.215.215v1.082h-3.219v-1.082a.215.215,0,0,0-.215-.215H117.782a.215.215,0,0,0-.215.215v1.082h-3.219v-1.082a.215.215,0,0,0-.215-.215h-5.151a.215.215,0,0,0-.215.215v1.082h-3.219v-1.082a.215.215,0,0,0-.215-.215h-5.151a.215.215,0,0,0-.215.215v1.082H96.75v-1.082a.215.215,0,0,0-.215-.215H91.385a.215.215,0,0,0-.215.215v1.082H87.951v-1.082a.215.215,0,0,0-.215-.215H82.586a.215.215,0,0,0-.215.215v1.082H79.152v-1.082a.215.215,0,0,0-.215-.215H73.786a.215.215,0,0,0-.215.215v1.082H70.353v-1.082a.215.215,0,0,0-.215-.215H64.987a.215.215,0,0,0-.215.215v1.082H54.9a5.151,5.151,0,0,0-5.151,5.151v2.329a5.151,5.151,0,0,0,5.151,5.151H226.162a5.151,5.151,0,0,0,5.151-5.151v-2.329a5.151,5.151,0,0,0-5.151-5.151Z" transform="translate(-49.75 -316.501)" fill="#3f3d56"/>
    <path id="Path_369" data-name="Path 369" d="M288.959,241.2H208.515a.915.915,0,0,1-.914-.914V206.767a.915.915,0,0,1,.914-.914h80.444a.915.915,0,0,1,.914.914v33.518A.915.915,0,0,1,288.959,241.2Zm-80.444-34.737a.305.305,0,0,0-.3.3v33.518a.305.305,0,0,0,.3.3h80.444a.305.305,0,0,0,.3-.3V206.767a.305.305,0,0,0-.3-.3Z" transform="translate(-159.502 -174.862)" fill="#3f3d56"/>
    <path id="Path_370" data-name="Path 370" d="M230.172,257.338h-3.657a.915.915,0,0,1-.914-.914v-3.657a.915.915,0,0,1,.914-.914h3.657a.915.915,0,0,1,.914.914v3.657A.915.915,0,0,1,230.172,257.338Zm-3.657-4.875a.305.305,0,0,0-.3.3v3.657a.305.305,0,0,0,.3.3h3.657a.305.305,0,0,0,.3-.3v-3.657a.305.305,0,0,0-.3-.3Z" transform="translate(-172.017 -207.014)" fill="#3f3d56"/>
    <rect id="Rectangle_100" data-name="Rectangle 100" width="69.475" height="0.609" transform="translate(53.821 49.7)" fill="#3f3d56"/>
    <rect id="Rectangle_101" data-name="Rectangle 101" width="223.354" height="0.609" transform="translate(80.367 81.881)" fill="#3f3d56"/>
    <circle id="Ellipse_44" data-name="Ellipse 44" cx="4.266" cy="4.266" r="4.266" transform="translate(76.359 77.619)" fill="#3f3d56"/>
    <circle id="Ellipse_45" data-name="Ellipse 45" cx="3.352" cy="3.352" r="3.352" transform="translate(300.37 79.14)" fill="#3f3d56"/>
    <circle id="Ellipse_46" data-name="Ellipse 46" cx="3.352" cy="3.352" r="3.352" transform="translate(316.824 146.227)" fill="#3f3d56"/>
    <circle id="Ellipse_47" data-name="Ellipse 47" cx="3.352" cy="3.352" r="3.352" transform="translate(94.623 146.227)" fill="#3f3d56"/>
  </g>
</svg>
