<svg xmlns="http://www.w3.org/2000/svg" width="335.801" height="223.163" viewBox="0 0 335.801 223.163">
  <g id="Group_353" data-name="Group 353" transform="translate(0 0)">
    <path id="Path_393" data-name="Path 393" d="M440.563,433.856c11.508-20.244,33.46-35.788,56.7-34.29a107.288,107.288,0,0,0-28.217,68.041c-.382,9.759.21,20.652-6.269,27.959-4.032,4.547-10.194,6.749-16.253,7.211s-12.117-.633-18.1-1.723l-1.45.445C426.423,478.22,429.055,454.1,440.563,433.856Z" transform="translate(-320.111 -305.424)" fill="#24885c"/>
    <path id="Path_394" data-name="Path 394" d="M497.275,399.254a91.7,91.7,0,0,0-40.831,38.937,39.491,39.491,0,0,0-4.322,11.593,22.649,22.649,0,0,0,1.178,11.862c1.276,3.549,2.993,7.032,3.385,10.83a13.868,13.868,0,0,1-3.712,10.717c-3.244,3.635-7.6,5.887-11.938,7.942-4.815,2.281-9.853,4.574-13.264,8.832-.413.516-1.19-.156-.777-.671,5.934-7.407,16.091-8.8,23.135-14.767,3.287-2.784,5.754-6.576,5.6-11.019-.136-3.885-1.9-7.478-3.227-11.061a24.169,24.169,0,0,1-1.584-11.555,36.509,36.509,0,0,1,3.861-11.717,88.967,88.967,0,0,1,16.36-22.484,93.331,93.331,0,0,1,25.8-18.412c.594-.286.922.687.332.971Z" transform="translate(-320.091 -304.625)" fill="#fff"/>
    <path id="Path_395" data-name="Path 395" d="M507.763,463.216a13.758,13.758,0,0,1-4.152-17.325c.3-.588,1.228-.149.927.44a12.74,12.74,0,0,0,3.895,16.108C508.968,462.827,508.295,463.6,507.763,463.216Z" transform="translate(-368.775 -335.281)" fill="#fff"/>
    <path id="Path_396" data-name="Path 396" d="M498.39,555.138a26.517,26.517,0,0,0,16.79-9.57c.415-.514,1.191.157.777.671a27.583,27.583,0,0,1-17.491,9.923c-.655.094-.727-.93-.075-1.024Z" transform="translate(-366.066 -399.831)" fill="#fff"/>
    <path id="Path_397" data-name="Path 397" d="M573.364,432.458a7.788,7.788,0,0,0,6.961,2.482c.654-.1.724.922.075,1.024a8.727,8.727,0,0,1-7.706-2.728.53.53,0,0,1-.053-.724A.516.516,0,0,1,573.364,432.458Z" transform="translate(-414.322 -326.69)" fill="#fff"/>
    <path id="Path_398" data-name="Path 398" d="M541.854,557.278c-.406.075-.812.151-1.222.234a102.557,102.557,0,0,0-16.036,4.433c-.406.141-.815.29-1.215.443a108.12,108.12,0,0,0-34.006,20.694,105,105,0,0,0-11.014,11.542c-4.658,5.692-9.256,12.233-15.344,15.944a18.019,18.019,0,0,1-1.96,1.063l-35.068-14.546c-.063-.073-.13-.138-.193-.212l-1.427-.517c.159-.225.329-.454.488-.679.092-.131.191-.258.283-.389.064-.086.128-.172.18-.253.021-.029.043-.057.06-.078.052-.081.11-.151.159-.225q1.419-1.929,2.87-3.845c0-.008,0-.008.014-.013a154.39,154.39,0,0,1,25.07-26.529c.283-.23.569-.467.868-.69a100.188,100.188,0,0,1,13.543-9.161,88.566,88.566,0,0,1,8.034-3.973,73.658,73.658,0,0,1,22.316-5.691c15.332-1.424,30.949,2.072,42.708,11.7C541.263,556.779,541.556,557.023,541.854,557.278Z" transform="translate(-318.469 -399.275)" fill="#60af8c"/>
    <path id="Path_399" data-name="Path 399" d="M542.484,576.723a91.7,91.7,0,0,0-56.044,6.506,39.489,39.489,0,0,0-10.431,6.654,22.649,22.649,0,0,0-6.2,10.181c-1.118,3.6-1.844,7.417-3.818,10.685a13.869,13.869,0,0,1-9.416,6.322c-4.779.949-9.613.124-14.313-.846-5.218-1.078-10.621-2.28-15.908-.934-.641.163-.856-.84-.217-1,9.2-2.342,18.146,2.662,27.363,2.138,4.3-.244,8.554-1.786,11.1-5.427,2.23-3.184,2.983-7.117,4.083-10.774a24.169,24.169,0,0,1,5.692-10.18,36.507,36.507,0,0,1,10.137-7.031,88.97,88.97,0,0,1,26.6-8.1,93.329,93.329,0,0,1,31.689.836c.646.129.322,1.1-.319.976Z" transform="translate(-319.363 -418.308)" fill="#fff"/>
    <path id="Path_400" data-name="Path 400" d="M612.15,561.972a13.758,13.758,0,0,1,7.116-16.333c.594-.288,1.07.621.476.91a12.74,12.74,0,0,0-6.588,15.206C613.347,562.387,612.343,562.6,612.15,561.972Z" transform="translate(-439.579 -399.96)" fill="#fff"/>
    <path id="Path_401" data-name="Path 401" d="M550.011,642.427a26.518,26.518,0,0,0,19.167,2.467c.641-.161.857.843.217,1a27.582,27.582,0,0,1-19.94-2.608C548.875,642.97,549.435,642.109,550.011,642.427Z" transform="translate(-399.24 -462.572)" fill="#fff"/>
    <path id="Path_402" data-name="Path 402" d="M694.541,575.334a7.788,7.788,0,0,0,4.064,6.172c.583.312.023,1.172-.556.863a8.727,8.727,0,0,1-4.511-6.818.53.53,0,0,1,.393-.61A.516.516,0,0,1,694.541,575.334Z" transform="translate(-492.612 -418.946)" fill="#fff"/>
    <path id="Path_403" data-name="Path 403" d="M280.965,536.815c-4.911-23.746-11.05-31.663-11.05-31.663l-2.345-1.819-2.82-2.191.014-.282-.669-.227-.157-.122-.258-.2-.041.044-.087.091-12.762-4.338-16.191-5.5-7.5-9.745a12.968,12.968,0,0,0-10.374-5.06l-23.945.177a12.968,12.968,0,0,0-8.723,3.46l-15.738,14.6L143.8,505.754l-.041-.041-.258.184-3.789,1.812.156.814-2.345,1.692s-6.139,7.367-11.05,29.462c-1.249,5.622-1.864,17.682-2.086,32.544a5.673,5.673,0,0,0,5.67,5.757H277.387a5.674,5.674,0,0,0,5.67-5.751C282.841,556.055,282.226,542.912,280.965,536.815Z" transform="translate(-124.382 -354.815)" fill="#3f3d56"/>
    <path id="Path_404" data-name="Path 404" d="M580.332,191.732a19.215,19.215,0,1,0,0,38.43h143.2a19.215,19.215,0,1,0,0-38.43Z" transform="translate(-406.943 -171.023)" fill="#e5e5e5"/>
    <path id="Path_405" data-name="Path 405" d="M587.459,202.747a15.326,15.326,0,0,0,0,30.652h143.2a15.326,15.326,0,0,0,0-30.652Z" transform="translate(-414.07 -178.15)" fill="#fff"/>
    <circle id="ab6171fa-7d69-4734-b81c-8dff60f9761b" cx="31.37" cy="31.37" r="31.37" transform="translate(52.762 49.256)" fill="#fcc"/>
    <path id="Path_406" data-name="Path 406" d="M339.237,444.345q-.2-.443-.4-.888c.051,0,.1.009.154.01Z" transform="translate(-263.131 -333.886)" fill="#2f2e41"/>
    <path id="Path_407" data-name="Path 407" d="M248.841,249.388c1.587-1.266,3.441-2.43,5.469-2.365s4.086,1.9,3.665,3.883A32.237,32.237,0,0,1,296.77,236.36c5.042,1.779,9.986,5.337,11.144,10.557.3,1.34.361,2.809,1.2,3.9a4.448,4.448,0,0,0,4.735,1.2l.05-.015a1.482,1.482,0,0,1,1.791,2.092l-1.427,2.66a11.432,11.432,0,0,0,5.446-.116,1.481,1.481,0,0,1,1.573,2.3A25.813,25.813,0,0,1,300.7,269.519c-5.7-.035-11.458-2-17.005-.688a14.772,14.772,0,0,0-9.935,20.736c-1.7-1.864-5-1.423-6.742.4s-2.194,4.555-2.019,7.075c.269,3.853,1.778,7.484,3.37,11.018a32.94,32.94,0,0,1-19.526-58.676Z" transform="translate(-196.952 -198.706)" fill="#2f2e41"/>
    <path id="Path_408" data-name="Path 408" d="M87.464,495.253l8.8,47.871,5.279.46Z" transform="translate(-56.588 -320.422)" opacity="0.2"/>
    <path id="Path_409" data-name="Path 409" d="M336.206,485.026l-8.8,51.447-5.279.494Z" transform="translate(-208.412 -313.805)" opacity="0.2"/>
    <path id="Path_410" data-name="Path 410" d="M260.221,167.64a3.127,3.127,0,0,1-4.186-1.836,3.176,3.176,0,0,1,1.665-4.333,3.335,3.335,0,0,1,2.521,6.168Zm-3.232-9.7-1.341.56a1.447,1.447,0,0,1-1.838-.674l-.066-.13c-1.443-2.6-1.609-5.766-.489-9.4,1.038-3.257,1.468-5.548.6-7.624-1-2.4-3.142-3.151-5.87-2.062a4.987,4.987,0,0,0-2.228,1.261,1.912,1.912,0,0,1-1.384.563,1.848,1.848,0,0,1-1.323-.58,1.888,1.888,0,0,1-.013-2.576,14.663,14.663,0,0,1,4.958-3.4c5.862-2.448,8.813,1.166,10.164,4.4,1.321,3.163.578,6.1-.616,9.9-1,3.159-.942,5.5.194,7.826a1.441,1.441,0,0,1-.75,1.938Z" transform="translate(-200.827 -133.069)" fill="#f05454"/>
    <path id="Path_411" data-name="Path 411" d="M651.675,269.607H623.184a.686.686,0,0,1,0-1.372h28.491a.686.686,0,1,1,0,1.372Z" transform="translate(-446.656 -220.519)" fill="#3e9f73"/>
    <path id="Path_412" data-name="Path 412" d="M754.056,270.255H725.565a.686.686,0,0,1,0-1.372h28.491a.686.686,0,0,1,0,1.372Z" transform="translate(-512.895 -220.938)" fill="#3e9f73"/>
    <path id="Path_413" data-name="Path 413" d="M856.438,270.9H827.947a.686.686,0,1,1,0-1.373h28.491a.686.686,0,0,1,0,1.372Z" transform="translate(-579.134 -221.358)" fill="#3e9f73"/>
    <path id="Path_414" data-name="Path 414" d="M958.816,271.551H930.325a.686.686,0,0,1,0-1.373h28.491a.686.686,0,1,1,0,1.372Z" transform="translate(-645.371 -221.777)" fill="#3e9f73"/>
    <circle id="Ellipse_49" data-name="Ellipse 49" cx="5.295" cy="5.295" r="5.295" transform="translate(185.416 32.181)" fill="#50cb93"/>
    <circle id="Ellipse_50" data-name="Ellipse 50" cx="5.295" cy="5.295" r="5.295" transform="translate(221.776 32.181)" fill="#50cb93"/>
    <circle id="Ellipse_51" data-name="Ellipse 51" cx="5.295" cy="5.295" r="5.295" transform="translate(258.137 32.181)" fill="#50cb93"/>
    <circle id="Ellipse_52" data-name="Ellipse 52" cx="5.295" cy="5.295" r="5.295" transform="translate(294.497 32.181)" fill="#50cb93"/>
  </g>
</svg>
