<svg xmlns="http://www.w3.org/2000/svg" xmlns:xlink="http://www.w3.org/1999/xlink" width="338" height="233" viewBox="0 0 338 233">
  <defs>
    <linearGradient id="linear-gradient" y1="0.5" x2="1" y2="0.5" gradientUnits="objectBoundingBox">
      <stop offset="0" stop-color="gray" stop-opacity="0.251"/>
      <stop offset="0.54" stop-color="gray" stop-opacity="0.122"/>
      <stop offset="1" stop-color="gray" stop-opacity="0.102"/>
    </linearGradient>
  </defs>
  <g id="Group_349" data-name="Group 349" transform="translate(0 0.006)">
    <path id="Path_279" data-name="Path 279" d="M208.092,79.173c-21.665.029-42.519-6.1-62.466-12.914s-39.739-14.439-61-17.671C70.95,46.51,55.4,46.7,44.711,54.244,34.422,61.5,31.442,73.513,30,84.61c-1.081,8.348-1.58,17.11,2.469,24.746,2.811,5.3,7.623,9.67,11.014,14.723,11.837,17.576,4.719,40.027-6.785,58.011-5.394,8.438-11.712,16.525-15.79,25.446s-5.75,19.037-1.591,27.842c4.121,8.727,13.431,15.061,23.422,19.387,20.289,8.8,43.91,10.689,66.9,11.415,50.884,1.612,101.866-1.675,152.712-4.963,18.816-1.215,37.716-2.439,56.144-5.961,10.231-1.953,20.767-4.853,28.021-11.207,9.208-8.067,11.092-21.239,4.391-30.707-11.237-15.88-40.867-18.875-48.924-36.057-4.443-9.459-.612-20.307,5.032-29.425,12.1-19.564,32.937-37.087,33.288-58.969.241-15.027-10.594-29.686-26.775-36.216-16.961-6.841-40.087-5.081-51.971,7.668C249.339,73.478,227.221,79.152,208.092,79.173Z" transform="translate(-16.91 -47.46)" fill="#4e64f1" opacity="0.1"/>
    <path id="Path_280" data-name="Path 280" d="M992.077,689.689s-3.57-2.355-7.107-.68c0,0,1.089,2.1,5.568,1.9Z" transform="translate(-704.511 -502.912)" fill="#6c63ff"/>
    <path id="Path_281" data-name="Path 281" d="M1005.219,693.25s1.086,4.136-1.638,6.95c0,0-1.638-1.7,0-5.881Z" transform="translate(-717.201 -506.508)" fill="#6c63ff"/>
    <path id="Path_282" data-name="Path 282" d="M1006.228,673.26s-.264-3.517-8.208-2.35a3.789,3.789,0,0,0,2.75,3.343C1003.559,675.328,1004.837,674.421,1006.228,673.26Z" transform="translate(-713.771 -490.314)" fill="#6c63ff"/>
    <path id="Path_283" data-name="Path 283" d="M1022.31,679.5s3.358,1.078.363,8.527a3.8,3.8,0,0,1-2.614-3.459C1019.661,681.6,1020.84,680.58,1022.31,679.5Z" transform="translate(-729.354 -496.6)" fill="#6c63ff"/>
    <path id="Path_284" data-name="Path 284" d="M1024.692,649.522s.456-5.789-7.662-5.2c0,0-.581,5.228,6.23,6.587Z" transform="translate(-727.251 -471.569)" fill="#6c63ff"/>
    <path id="Path_285" data-name="Path 285" d="M1039.367,627.678s-1.112-6.561-9.228-4.606c0,0-.029,5.672,7.9,6.169Z" transform="translate(-736.562 -456.237)" fill="#6c63ff"/>
    <path id="Path_286" data-name="Path 286" d="M1051.214,604.747s-1.865-6.39-9.9-4.479c0,0,1.914,5.748,9.37,5.658Z" transform="translate(-744.488 -440.037)" fill="#24885c"/>
    <path id="Path_287" data-name="Path 287" d="M1064.815,581.582s-1.821-6.631-9.585-4.647c0,0,2.591,6.3,9.071,5.768Z" transform="translate(-754.365 -423.447)" fill="#24885c"/>
    <path id="Path_288" data-name="Path 288" d="M1075.388,556.2s-1.4-8.109-8.638-6.314c0,0,2.1,7.377,8.106,7.5Z" transform="translate(-762.539 -404.309)" fill="#24885c"/>
    <path id="Path_289" data-name="Path 289" d="M1082.244,530.95s-1.682-8.173-9-5.809c0,0,2.87,7.726,8.484,6.927Z" transform="translate(-767.144 -386.603)" fill="#24885c"/>
    <path id="Path_290" data-name="Path 290" d="M1088.65,502.485s-2.669-8.176-8.33-7.955c0,0,2.727,8.635,7.857,9.585Z" transform="translate(-772.167 -365.156)" fill="#24885c"/>
    <path id="Path_291" data-name="Path 291" d="M1093.731,475.96s-2.9-9.84-7.511-9.082c0,0,2.01,7.522,7.348,10.616Z" transform="translate(-776.354 -345.483)" fill="#24885c"/>
    <path id="Path_292" data-name="Path 292" d="M1096.081,449.167s-2.724-8.2-7.261-8.527c0,0,1.853,8.068,7.171,10.659Z" transform="translate(-778.199 -326.867)" fill="#24885c"/>
    <path id="Path_293" data-name="Path 293" d="M1100.1,423.134s-3.4-8.208-6.39-8.394c0,0,1.475,8.083,6.1,9.741Z" transform="translate(-781.668 -308.46)" fill="#24885c"/>
    <path id="Path_294" data-name="Path 294" d="M1104.569,395.534s-2.088-8.914-5.089-9.654c0,0,.41,7.293,4.786,10.322Z" transform="translate(-785.763 -287.953)" fill="#24885c"/>
    <path id="Path_295" data-name="Path 295" d="M1109.6,366.991s-2.2-7.107-4.627-8.191c0,0,.479,8.379,4.066,9.927Z" transform="translate(-789.658 -268.708)" fill="#24885c"/>
    <path id="Path_296" data-name="Path 296" d="M1119.665,335.39l.441-12.53s-4.545,9.445-.77,14.728Z" transform="translate(-798.788 -243.175)" fill="#24885c"/>
    <path id="Path_297" data-name="Path 297" d="M1131.89,299.49s3.273-9.149,4.066-9.66c0,0-6.419,5.937-5.792,13.572Z" transform="translate(-807.504 -219.701)" fill="#24885c"/>
    <path id="Path_298" data-name="Path 298" d="M1040.986,662.125s5.757-.752,5.585,7.383c0,0-5.2.848-6.9-5.881Z" transform="translate(-743.324 -484.237)" fill="#6c63ff"/>
    <path id="Path_299" data-name="Path 299" d="M1059.607,639.06s6.651-.02,6.1,8.307c0,0-5.585,1-7.427-6.733Z" transform="translate(-756.529 -467.862)" fill="#24885c"/>
    <path id="Path_300" data-name="Path 300" d="M1074.324,617.092s6.038-2.832,9.9,4.479c0,0-5.577,2.358-10.436-3.3Z" transform="translate(-767.534 -451.86)" fill="#24885c"/>
    <path id="Path_301" data-name="Path 301" d="M1087.441,592.509s6.184-3.012,9.814,4.127c0,0-6.442,2.219-10.325-3Z" transform="translate(-776.858 -434.326)" fill="#24885c"/>
    <path id="Path_302" data-name="Path 302" d="M1095.553,566.744s5.951-5.684,10.7.064c0,0-6.079,4.679-10.973,1.2Z" transform="translate(-782.782 -414.684)" fill="#24885c"/>
    <path id="Path_303" data-name="Path 303" d="M1102.555,539.4s5.986-5.809,10.7.267c0,0-6.718,4.772-10.912.953Z" transform="translate(-787.792 -395.257)" fill="#24885c"/>
    <path id="Path_304" data-name="Path 304" d="M1106.93,506.774s4.612-7.261,10.044-5.64c0,0-4.787,7.688-9.992,7.345Z" transform="translate(-791.049 -369.681)" fill="#24885c"/>
    <path id="Path_305" data-name="Path 305" d="M1111.319,479.187s4.647-9.143,9.044-7.552c0,0-3.352,7.029-9.163,9.094Z" transform="translate(-794.078 -348.758)" fill="#24885c"/>
    <path id="Path_306" data-name="Path 306" d="M1111.585,452.745s4.778-7.2,9.254-6.317c0,0-3.906,7.3-9.718,8.4Z" transform="translate(-794.022 -330.923)" fill="#24885c"/>
    <path id="Path_307" data-name="Path 307" d="M1114,423.222s3.7-8.077,6.712-8.132c0,0-1.777,8.019-6.462,9.5Z" transform="translate(-796.065 -308.708)" fill="#24885c"/>
    <path id="Path_308" data-name="Path 308" d="M1116.5,398.5s4.115-8.179,7.209-8.2c0,0-2.106,6.994-7.072,8.914Z" transform="translate(-797.839 -291.091)" fill="#24885c"/>
    <path id="Path_309" data-name="Path 309" d="M1118.63,370.354s3.079-6.767,5.629-7.534c0,0-1.539,8.249-5.289,9.329Z" transform="translate(-799.351 -271.564)" fill="#24885c"/>
    <path id="Path_310" data-name="Path 310" d="M1122.935,339.542l6.88-10.482s-1.763,10.34-7.885,12.489Z" transform="translate(-801.692 -247.578)" fill="#24885c"/>
    <path id="Path_311" data-name="Path 311" d="M1133.511,310.34s8-5.518,8.286-6.41c0,0-4.066,7.729-11.618,9.094Z" transform="translate(-807.546 -229.716)" fill="#24885c"/>
    <path id="Path_312" data-name="Path 312" d="M1142.761,295.908s9.181-8.827,11.525-8.818a14.987,14.987,0,0,0-11.746,8.347Z" transform="translate(-816.316 -217.749)" fill="#24885c"/>
    <path id="Path_313" data-name="Path 313" d="M1118.94,337.7l.334.044c1.725-13.5,4.24-21.493,7.081-22.472l-.11-.319C1123.233,316,1120.7,323.864,1118.94,337.7Z" transform="translate(-799.57 -237.565)" fill="#444053"/>
    <path id="Path_314" data-name="Path 314" d="M1110.2,423.114l.505.041c.107-1.261.189-2.55.244-3.837.482-11.176,1.229-21.441,2.21-29.134l-.29-.363c-.985,7.711-1.943,18.283-2.425,29.477C1110.389,420.575,1110.307,421.859,1110.2,423.114Z" transform="translate(-793.369 -290.794)" fill="#444053"/>
    <path id="Path_315" data-name="Path 315" d="M976.333,563.247a65.785,65.785,0,0,0,18.217-13.485,73.253,73.253,0,0,0,13.317-18.879c4.27-8.693,6.872-19.376,7.743-29.753l-.526.247c-1.96,23.294-12.565,39.21-21,47.88a65.1,65.1,0,0,1-18.028,13.36Z" transform="translate(-698.189 -369.998)" fill="#444053"/>
    <path id="Path_316" data-name="Path 316" d="M367.736,132.69H89.35a2.483,2.483,0,0,0-2.48,2.486v7.244H370.216v-7.244A2.483,2.483,0,0,0,367.736,132.69Z" transform="translate(-66.55 -107.94)" fill="#3f3d56"/>
    <path id="Path_317" data-name="Path 317" d="M86.87,166.19V328.4a5,5,0,0,0,5,4.989H365.215a5,5,0,0,0,5-4.989V166.19Z" transform="translate(-66.55 -131.71)" fill="#50cb93"/>
    <circle id="Ellipse_34" data-name="Ellipse 34" cx="1.162" cy="1.162" r="1.162" transform="translate(23.657 28.381)" fill="#fa5959" opacity="0.8"/>
    <circle id="Ellipse_35" data-name="Ellipse 35" cx="1.162" cy="1.162" r="1.162" transform="translate(26.852 28.381)" fill="#fed253" opacity="0.8"/>
    <circle id="Ellipse_36" data-name="Ellipse 36" cx="1.162" cy="1.162" r="1.162" transform="translate(30.046 28.381)" fill="#8ccf4d" opacity="0.8"/>
    <rect id="Rectangle_78" data-name="Rectangle 78" width="228.289" height="100.383" transform="translate(46.724 61.281)" opacity="0.05"/>
    <rect id="Rectangle_79" data-name="Rectangle 79" width="224.804" height="98.17" transform="translate(48.466 62.044)" fill="#fafafa"/>
    <path id="Path_318" data-name="Path 318" d="M340.144,349.38a22.364,22.364,0,1,0,22.364,22.364A22.364,22.364,0,0,0,340.144,349.38Zm4.011,22.9v10.59h-7.906v-10.59a6.55,6.55,0,1,1,7.906,0Z" transform="translate(-230.605 -262.073)" fill="#325d4a"/>
    <path id="Path_320" data-name="Path 320" d="M324.534,327.38a28.754,28.754,0,1,0,28.754,28.754,28.754,28.754,0,0,0-28.754-28.754Zm5.155,29.445v13.613H319.524V356.825a8.423,8.423,0,1,1,10.166,0Z" transform="translate(-214.994 -247.489)" fill="#24885c"/>
    <rect id="Rectangle_80" data-name="Rectangle 80" width="92.942" height="9.875" transform="translate(149.979 105.889)" fill="#50cb93"/>
    <rect id="Rectangle_81" data-name="Rectangle 81" width="20.041" height="9.875" transform="translate(222.817 123.831)" fill="#24885c"/>
    <path id="Path_321" data-name="Path 321" d="M555.991,424.913H554.31l1.5-1.493a.148.148,0,0,0,0-.206.145.145,0,0,0-.206,0l-1.5,1.5v-1.685a.145.145,0,0,0-.145-.145.148.148,0,0,0-.145.145v1.685l-1.493-1.5a.145.145,0,0,0-.206,0,.148.148,0,0,0,0,.206l1.5,1.493h-1.685a.148.148,0,0,0-.145.145.145.145,0,0,0,.145.145h1.685l-1.5,1.5a.148.148,0,0,0,0,.206.151.151,0,0,0,.206,0l1.493-1.5v1.682a.145.145,0,0,0,.29,0V425.4l1.5,1.5a.151.151,0,0,0,.206,0,.148.148,0,0,0,0-.206l-1.5-1.5h1.682a.141.141,0,1,0,0-.282Z" transform="translate(-396.759 -314.235)" fill="#fff"/>
    <path id="Path_322" data-name="Path 322" d="M576.992,424.913H575.31l1.5-1.493a.148.148,0,0,0,0-.206.145.145,0,0,0-.206,0l-1.5,1.5v-1.685a.145.145,0,0,0-.145-.145.148.148,0,0,0-.145.145v1.685l-1.493-1.5a.145.145,0,0,0-.206,0,.148.148,0,0,0,0,.206l1.5,1.493h-1.685a.148.148,0,0,0-.145.145.145.145,0,0,0,.145.145h1.685l-1.5,1.5a.148.148,0,0,0,0,.206.151.151,0,0,0,.206,0l1.493-1.5v1.682a.145.145,0,0,0,.29,0V425.4l1.5,1.5a.151.151,0,0,0,.206,0,.148.148,0,0,0,0-.206l-1.5-1.5h1.682a.141.141,0,1,0,0-.282Z" transform="translate(-411.673 -314.235)" fill="#fff"/>
    <path id="Path_323" data-name="Path 323" d="M597.991,424.913H596.31l1.5-1.493a.148.148,0,0,0,0-.206.145.145,0,0,0-.206,0l-1.5,1.5v-1.685a.145.145,0,0,0-.145-.145.148.148,0,0,0-.145.145v1.685l-1.493-1.5a.145.145,0,0,0-.206,0,.148.148,0,0,0,0,.206l1.5,1.493h-1.685a.148.148,0,0,0-.145.145.145.145,0,0,0,.145.145h1.685l-1.5,1.5a.148.148,0,0,0,0,.206.151.151,0,0,0,.206,0l1.493-1.5v1.682a.145.145,0,0,0,.29,0V425.4l1.5,1.5a.151.151,0,0,0,.206,0,.148.148,0,0,0,0-.206l-1.5-1.5h1.682a.141.141,0,1,0,0-.282Z" transform="translate(-426.586 -314.235)" fill="#fff"/>
    <path id="Path_324" data-name="Path 324" d="M618.991,424.913H617.31l1.5-1.493a.148.148,0,0,0,0-.206.145.145,0,0,0-.206,0l-1.5,1.5v-1.685a.145.145,0,0,0-.145-.145.148.148,0,0,0-.145.145v1.685l-1.493-1.5a.145.145,0,0,0-.206,0,.148.148,0,0,0,0,.206l1.5,1.493h-1.685a.148.148,0,0,0-.145.145.145.145,0,0,0,.145.145h1.685l-1.5,1.5a.148.148,0,0,0,0,.206.151.151,0,0,0,.206,0l1.493-1.5v1.682a.145.145,0,0,0,.29,0V425.4l1.5,1.5a.151.151,0,0,0,.206,0,.148.148,0,0,0,0-.206l-1.5-1.5h1.682a.141.141,0,1,0,0-.282Z" transform="translate(-441.5 -314.235)" fill="#fff"/>
    <path id="Path_325" data-name="Path 325" d="M639.991,424.913H638.31l1.5-1.493a.148.148,0,0,0,0-.206.145.145,0,0,0-.206,0l-1.5,1.5v-1.685a.145.145,0,0,0-.145-.145.148.148,0,0,0-.145.145v1.685l-1.493-1.5a.145.145,0,0,0-.206,0,.148.148,0,0,0,0,.206l1.5,1.493h-1.685a.148.148,0,0,0-.145.145.145.145,0,0,0,.145.145h1.685l-1.5,1.5a.148.148,0,0,0,0,.206.151.151,0,0,0,.206,0l1.493-1.5v1.682a.145.145,0,0,0,.29,0V425.4l1.5,1.5a.151.151,0,0,0,.206,0,.148.148,0,0,0,0-.206l-1.5-1.5h1.682a.141.141,0,1,0,0-.282Z" transform="translate(-456.414 -314.235)" fill="#fff"/>
    <path id="Path_326" data-name="Path 326" d="M660.991,424.913H659.31l1.5-1.493a.148.148,0,0,0,0-.206.145.145,0,0,0-.206,0l-1.5,1.5v-1.685a.145.145,0,0,0-.145-.145.148.148,0,0,0-.145.145v1.685l-1.493-1.5a.145.145,0,0,0-.206,0,.148.148,0,0,0,0,.206l1.5,1.493h-1.685a.148.148,0,0,0-.145.145.145.145,0,0,0,.145.145h1.685l-1.5,1.5a.148.148,0,0,0,0,.206.151.151,0,0,0,.206,0l1.493-1.5v1.682a.145.145,0,0,0,.29,0V425.4l1.5,1.5a.151.151,0,0,0,.206,0,.148.148,0,0,0,0-.206l-1.5-1.5h1.682a.141.141,0,1,0,0-.282Z" transform="translate(-471.327 -314.235)" fill="#fff"/>
    <path id="Path_327" data-name="Path 327" d="M681.992,424.913H680.31l1.5-1.493a.148.148,0,0,0,0-.206.145.145,0,0,0-.206,0l-1.5,1.5v-1.685a.145.145,0,0,0-.145-.145.148.148,0,0,0-.145.145v1.685l-1.493-1.5a.145.145,0,0,0-.206,0,.148.148,0,0,0,0,.206l1.5,1.493h-1.685a.148.148,0,0,0-.145.145.145.145,0,0,0,.145.145h1.685l-1.5,1.5a.148.148,0,0,0,0,.206.151.151,0,0,0,.206,0l1.493-1.5v1.682a.145.145,0,0,0,.291,0V425.4l1.5,1.5a.151.151,0,0,0,.206,0,.148.148,0,0,0,0-.206l-1.5-1.5h1.682a.141.141,0,1,0,0-.282Z" transform="translate(-486.241 -314.235)" fill="#fff"/>
    <path id="Path_328" data-name="Path 328" d="M702.991,424.913H701.31l1.5-1.493a.148.148,0,0,0,0-.206.145.145,0,0,0-.206,0l-1.5,1.5v-1.685a.145.145,0,0,0-.145-.145.148.148,0,0,0-.145.145v1.685l-1.493-1.5a.145.145,0,0,0-.206,0,.148.148,0,0,0,0,.206l1.5,1.493h-1.685a.148.148,0,0,0-.145.145.145.145,0,0,0,.145.145h1.685l-1.5,1.5a.148.148,0,0,0,0,.206.151.151,0,0,0,.206,0l1.493-1.5v1.682a.145.145,0,0,0,.29,0V425.4l1.5,1.5a.151.151,0,0,0,.206,0,.148.148,0,0,0,0-.206l-1.5-1.5h1.682a.141.141,0,1,0,0-.282Z" transform="translate(-501.155 -314.235)" fill="#fff"/>
    <path id="Path_329" data-name="Path 329" d="M723.991,424.913H722.31l1.5-1.493a.148.148,0,0,0,0-.206.145.145,0,0,0-.206,0l-1.5,1.5v-1.685a.145.145,0,0,0-.145-.145.148.148,0,0,0-.145.145v1.685l-1.493-1.5a.145.145,0,0,0-.206,0,.148.148,0,0,0,0,.206l1.5,1.493h-1.685a.148.148,0,0,0-.145.145.145.145,0,0,0,.145.145h1.685l-1.5,1.5a.148.148,0,0,0,0,.206.151.151,0,0,0,.206,0l1.493-1.5v1.682a.145.145,0,0,0,.29,0V425.4l1.5,1.5a.151.151,0,0,0,.206,0,.148.148,0,0,0,0-.206l-1.5-1.5h1.682a.141.141,0,1,0,0-.282Z" transform="translate(-516.068 -314.235)" fill="#fff"/>
    <path id="Path_330" data-name="Path 330" d="M744.991,424.913H743.31l1.5-1.493a.148.148,0,0,0,0-.206.145.145,0,0,0-.206,0l-1.5,1.5v-1.685a.145.145,0,0,0-.145-.145.148.148,0,0,0-.145.145v1.685l-1.493-1.5a.145.145,0,0,0-.206,0,.148.148,0,0,0,0,.206l1.5,1.493h-1.685a.148.148,0,0,0-.145.145.145.145,0,0,0,.145.145h1.685l-1.5,1.5a.148.148,0,0,0,0,.206.151.151,0,0,0,.206,0l1.493-1.5v1.682a.145.145,0,0,0,.29,0V425.4l1.5,1.5a.151.151,0,0,0,.206,0,.148.148,0,0,0,0-.206l-1.5-1.5h1.682a.141.141,0,1,0,0-.282Z" transform="translate(-530.982 -314.235)" fill="#fff"/>
    <path id="Path_331" data-name="Path 331" d="M765.991,424.913H764.31l1.5-1.493a.148.148,0,0,0,0-.206.145.145,0,0,0-.206,0l-1.5,1.5v-1.685a.145.145,0,0,0-.145-.145.148.148,0,0,0-.145.145v1.685l-1.493-1.5a.145.145,0,0,0-.206,0,.148.148,0,0,0,0,.206l1.5,1.493h-1.685a.148.148,0,0,0-.145.145.145.145,0,0,0,.145.145h1.685l-1.5,1.5a.148.148,0,0,0,0,.206.151.151,0,0,0,.206,0l1.493-1.5v1.682a.145.145,0,0,0,.29,0V425.4l1.5,1.5a.151.151,0,0,0,.206,0,.148.148,0,0,0,0-.206l-1.5-1.5h1.682a.141.141,0,1,0,0-.282Z" transform="translate(-545.895 -314.235)" fill="#fff"/>
    <path id="Path_332" data-name="Path 332" d="M829.541,491.8a5.2,5.2,0,0,0-.131-1.043,3.385,3.385,0,0,0-1.821-2.466,15.291,15.291,0,0,1-2.887-1.22c-.174-3.114.54-6.3-.238-9.318a23.7,23.7,0,0,1-.9-3.291c-.16-1.406.224-2.9-.337-4.2a4.145,4.145,0,0,0-2.454-2.12,13.075,13.075,0,0,0-3.273-.581c-1.394-.113-5.908-.648-7.482.6h0a1.645,1.645,0,0,0-.29.29h0a1.15,1.15,0,0,0-.093.151l-.015.023a1.189,1.189,0,0,0-.078.189h0a1.486,1.486,0,0,0-.049.218v.523c.02.261.058.523.058.781a1.682,1.682,0,0,1-.035.383,2.685,2.685,0,0,1-.482.941h0l-.052.076c-.032.046-.064.09-.093.137s-.052.081-.076.122-.046.067-.067.1a1.426,1.426,0,0,0-.076.148c0,.029-.032.055-.044.084a1.436,1.436,0,0,0-.087.244,1.62,1.62,0,0,0-.017.773,2.874,2.874,0,0,0,.4.915c.073.119.151.235.232.351l.2.276a6.273,6.273,0,0,0-.061.813,6.009,6.009,0,0,0,2.294,4.722,17.786,17.786,0,0,1-.037,3.686c-.026.256-.058.514-.093.77s-.061.424-.1.636a2.948,2.948,0,0,1-1.269-.1,5.973,5.973,0,0,0-.581-.224c-.845-.212-1.708.63-2.544.375a.341.341,0,0,1-.038.116,1.139,1.139,0,0,0-.581-.171,2.119,2.119,0,0,1-1.261-.723l-1.107-1.043a1.219,1.219,0,0,1-.192-.215,1.509,1.509,0,0,1-.134-.357,4.114,4.114,0,0,0-1.072-1.536.726.726,0,0,0-.317-.229.489.489,0,0,0-.145,0,1.274,1.274,0,0,0-.1-.116,2.736,2.736,0,0,0-.241-.244c-.529-.488-.581-.906-1.04-1.452a13.949,13.949,0,0,1-1.086-1.641c-.038-.305-.09-.619-.154-.935a12.036,12.036,0,0,0-.636-2.12l-.581-1.287-.067.067c-.421-.627-.871-.97-1.275-.889-.677.139-1.011,1.452-.9,3.169l.232,1.743a.538.538,0,0,0,.032.131,3.222,3.222,0,0,0-.064.627c0,.244.227.424.346.642a1.815,1.815,0,0,1,.291.99c-.015.125-.052.244-.058.366a1.409,1.409,0,0,0,.273.755l1.452,2.44.29.511.017.023a1.24,1.24,0,0,0,.389.447,5.319,5.319,0,0,0,.479,1.763c.049.11.1.215.163.319a10.271,10.271,0,0,0,1.371,1.78l.691.775c.682.761,1.365,1.525,2.106,2.228a2.819,2.819,0,0,0,.941.659,1.066,1.066,0,0,0,1.057-.154v1.08a.607.607,0,0,1,.459.956,23.953,23.953,0,0,1-2.149,4.548,9.683,9.683,0,0,1,1.8,1.374,8.1,8.1,0,0,1,.938,1.269c.026.215.046.427.058.639.215,3.462-1.124,6.9-2.323,10.2a7.948,7.948,0,0,0-.694,2.887,5.665,5.665,0,0,0-.651.468,4.307,4.307,0,0,1,.119,1.841,3.262,3.262,0,0,1-.241,1.162,8.154,8.154,0,0,1-.418.746,11.083,11.083,0,0,0-1.069,4.421c-.09.915.264,2.033-.151,2.852a11.667,11.667,0,0,0-1.452,4.467,4.476,4.476,0,0,1-.134,1.043c-.09.29-.25.537-.331.822a3.517,3.517,0,0,0-.058,1.162,11.118,11.118,0,0,1-.61,4.1,5.572,5.572,0,0,0-.479,3.212,4.527,4.527,0,0,0-1.229,2.7,4.264,4.264,0,0,1-.093.77,3.741,3.741,0,0,1-.349.741,6.482,6.482,0,0,0-.79,3.485,9.7,9.7,0,0,0-1.565,4.089c-.259,1.449-.372,2.925-.7,4.357a40.609,40.609,0,0,0-1.4,5.748,4.049,4.049,0,0,0-1.528,2.867,12.762,12.762,0,0,1-.671,3.273c-.238.529-.581,1-.807,1.542a7.08,7.08,0,0,0-.349,1.327,5.179,5.179,0,0,0-.09,2.178,3.284,3.284,0,0,1-.851.648c.046-.18.084-.36.116-.543-.749.68-2.109.441-2.707,1.258a1.226,1.226,0,0,0,.29,1.682,2.324,2.324,0,0,0,.6.258,9.606,9.606,0,0,0,4.438.685,1.325,1.325,0,0,0,.5-.16,1.619,1.619,0,0,0,.468-.54c.224-.354.447-.709.668-1.063a13.785,13.785,0,0,0,1.629.38c.055.465.1.929.116,1.394.29.058.68.076.816-.195a.706.706,0,0,0,.049-.322c0-.206.029-.479.046-.758h.058a5.517,5.517,0,0,0,2.57-.52c-.311-2.573.714-5.089,1.6-7.523.938-2.562,1.743-5.17,2.553-7.778.581-1.836,1.223-3.613,1.792-5.452q1.075-3.485,2.158-6.971c.314-1.022.63-2.033.99-3.05a47.5,47.5,0,0,1,2.692-5.992c.29-.549.581-1.092.819-1.661.29-.694.5-1.42.729-2.138a33.094,33.094,0,0,1,1.824-4.293c.02-.038.035-.073.055-.107.235.961.471,1.937.627,2.9a11.039,11.039,0,0,1,.049,3.59,11.841,11.841,0,0,0-.372,2.434,15.031,15.031,0,0,0,.95,3.262,12.411,12.411,0,0,1,.325,2.5c.081,1.307.79,2.774.29,3.985-1.554,3.837-.8,8.17-1.687,12.2-.456,2.068-1.853,4.011-1.743,6.125q.116,2.251.395,4.49a4.275,4.275,0,0,0,.363,1.362,5,5,0,0,0,.4.651c-.128.049-.235.18-.328.456a1.792,1.792,0,0,0,.645,2.033,2.819,2.819,0,0,0,.839.29,4.419,4.419,0,0,0,1.214.169,2.829,2.829,0,0,0,.381-.047,13.836,13.836,0,0,0,1.374.494,2.969,2.969,0,0,0,.038.357.444.444,0,0,0,.151.328.453.453,0,0,0,.232.041h1.577V578.8a1.3,1.3,0,0,0,1-.325,1.551,1.551,0,0,0,.29-.6q.645-2.187,1.281-4.377a13.994,13.994,0,0,0,.625-5c-.561-5.353.671-10.723.27-16.091a38.544,38.544,0,0,1,.494-9.654c.131-.72.29-1.452.349-2.17.128-1.354-.029-2.721.067-4.066.032-.471.1-.938.154-1.406a67.476,67.476,0,0,0,.625-8.757,27.594,27.594,0,0,0-.18-2.9,1.66,1.66,0,0,0,.793-.465,1.975,1.975,0,0,0,.189-1.24,8.993,8.993,0,0,1,.781-2.968,35.247,35.247,0,0,0,1.1-4.084,14.255,14.255,0,0,0,.488-3.413q0-.174-.017-.349a.9.9,0,0,0,.267-.29,1.689,1.689,0,0,0,.139-.537c.1-.741.212-1.484.317-2.228q.116-.8.229-1.595l.924-6.445c.078-.561.16-1.118.238-1.676l.241-1.667c.026-.2.055-.4.076-.581C830.294,494.73,829.617,493.15,829.541,491.8Zm-7.705,24.13a5.31,5.31,0,0,1-.581-2.524h-.032a1.3,1.3,0,0,0-.038-.819c-.09-.212-.247-.392-.343-.6a2.212,2.212,0,0,1-.157-.813,22.167,22.167,0,0,1,.415-5.269c.038-.2.078-.41.116-.613a1.514,1.514,0,0,0,.331-.258,2.355,2.355,0,0,0,.375-.581c.328-.659.627-1.33.9-2.013.09-.221.221-.476.444-.531-.046,1.7.128,3.433-.563,4.967a3.142,3.142,0,0,0-.29.784c-.064.433.116.871.052,1.3-.032.224-.128.43-.166.651a.636.636,0,0,0,.169.616.505.505,0,0,0,.125.064c-.017.116-.032.235-.044.349-.023.238-.035.462-.049.6a18.707,18.707,0,0,0-.078,2.138c0,.77.029,1.539.017,2.324a1.579,1.579,0,0,1-.11.659,1.145,1.145,0,0,1-.221.29A7.563,7.563,0,0,0,821.836,515.933Z" transform="translate(-562.766 -346.222)" fill="url(#linear-gradient)"/>
    <ellipse id="Ellipse_37" data-name="Ellipse 37" cx="1.638" cy="4.638" rx="1.638" ry="4.638" transform="matrix(0.98, -0.201, 0.201, 0.98, 232.72, 127.604)" fill="#fbbebe"/>
    <path id="Path_333" data-name="Path 333" d="M878.179,836.884a1.758,1.758,0,0,0,.645,2.013,2.869,2.869,0,0,0,.834.29,4.4,4.4,0,0,0,1.211.166c.5-.023.985-.221,1.487-.29a.232.232,0,0,1,.171.023.247.247,0,0,1,.064.2,7.67,7.67,0,0,0,.064.854.438.438,0,0,0,.151.328.453.453,0,0,0,.232.041h1.574a15.352,15.352,0,0,0-.45-4.107.917.917,0,0,0-.116-.29.962.962,0,0,0-.5-.29,2.808,2.808,0,0,0-1.217-.212,3.565,3.565,0,0,0-1.365.668,2.08,2.08,0,0,1-1.548.375C878.888,836.515,878.449,836.076,878.179,836.884Z" transform="translate(-628.498 -607.519)" fill="#3f3d56"/>
    <path id="Path_334" data-name="Path 334" d="M794.057,834.152a4.356,4.356,0,0,1-1.589,1.08l-.267.128a.186.186,0,0,0-.09.073.157.157,0,0,0,.029.131,1.879,1.879,0,0,0,2.132.775,1.131,1.131,0,0,0,.468-.244,1.534,1.534,0,0,0,.36-.935,1.915,1.915,0,0,0-.044-1.072C794.652,833.179,794.5,833.591,794.057,834.152Z" transform="translate(-567.431 -606.062)" fill="#fbbebe"/>
    <path id="Path_335" data-name="Path 335" d="M795.747,838.139a.7.7,0,0,1-.049.322c-.136.267-.517.253-.813.195a19.542,19.542,0,0,0-.357-2.933c-.563-.026-.97.508-1.272.987l-.778,1.234a1.609,1.609,0,0,1-.465.54,1.378,1.378,0,0,1-.5.16,9.524,9.524,0,0,1-4.423-.685,2.342,2.342,0,0,1-.6-.256,1.229,1.229,0,0,1-.29-1.679c.6-.813,1.952-.581,2.7-1.255a6.77,6.77,0,0,1-.383,1.385c1-.151,1.676-1.069,2.483-1.682a1.527,1.527,0,0,1,.709-.337,1.56,1.56,0,0,1,.581.061,6.815,6.815,0,0,1,2.556,1.258,2.756,2.756,0,0,1,.915.953A7.057,7.057,0,0,1,795.747,838.139Z" transform="translate(-563.092 -606.471)" fill="#3f3d56"/>
    <circle id="Ellipse_38" data-name="Ellipse 38" cx="6.001" cy="6.001" r="6.001" transform="translate(246.58 124.197)" fill="#fbbebe"/>
    <path id="Path_336" data-name="Path 336" d="M913.889,614.69a14.233,14.233,0,0,1-.485,3.4,35.038,35.038,0,0,1-1.1,4.066,8.949,8.949,0,0,0-.775,2.962,1.97,1.97,0,0,1-.192,1.237,1.806,1.806,0,0,1-.848.485,1.06,1.06,0,0,0-.714.636,4.488,4.488,0,0,1-.6-1.33q-.781-2.393-1.452-4.813a.625.625,0,0,1,.041-.581.721.721,0,0,1,.253-.142,2.614,2.614,0,0,0,.8-.517,1.177,1.177,0,0,0,.267-.346,1.565,1.565,0,0,0,.113-.656c0-.77,0-1.536-.02-2.306a19.278,19.278,0,0,1,.081-2.129c0-.139.026-.363.049-.6.044-.456.131-.985.378-1.162.369-.247,1.473.084,1.891.142.72.1,1.452.215,2.155.351A5.755,5.755,0,0,1,913.889,614.69Z" transform="translate(-649.503 -449.218)" fill="#3f3d56"/>
    <path id="Path_337" data-name="Path 337" d="M829.616,505.774c-.232.465-.79.688-1.22.982l-1.473,1.011a.982.982,0,0,1-.729.25.959.959,0,0,1-.543-.508.1.1,0,0,0,0-.023l-.3-.511-1.452-2.434a1.385,1.385,0,0,1-.27-.749c0-.125.044-.241.055-.366a1.758,1.758,0,0,0-.29-.988c-.116-.218-.349-.4-.343-.642a2.323,2.323,0,0,1,.163-.938,1.9,1.9,0,0,1,.636-.68c.136-.1.276-.192.421-.29a.831.831,0,0,1,.253-.116c.241-.049.479.151.723.16,1.048.7,1.452,2.033,2.277,2.992.465.546.511.964,1.037,1.452.084.075.165.157.244.241a1.688,1.688,0,0,1,.261.378C829.157,505.243,829.735,505.536,829.616,505.774Z" transform="translate(-589.408 -368.876)" fill="#3f3d56"/>
    <path id="Path_338" data-name="Path 338" d="M874.522,507.212a5.407,5.407,0,0,1,.645,2.925,1.828,1.828,0,0,1-.253.77,2.487,2.487,0,0,1-2.059.8,1.214,1.214,0,0,0-.895.29.813.813,0,0,0,.055.993,2.242,2.242,0,0,0,.889.581,7.87,7.87,0,0,0,3.825.848c.61-.058,1.2-.235,1.809-.325a19.012,19.012,0,0,1,1.992-.11c.79-.029,1.577-.107,2.364-.186l2.085-.206a.465.465,0,0,0,.311-.113c.154-.18-.044-.444-.235-.581-1.107-.819-2.515-1.382-3.146-2.614a15.382,15.382,0,0,1-.6-1.9,15.968,15.968,0,0,1-.691-1.833,12.15,12.15,0,0,1-.1-1.69,2.269,2.269,0,0,0-.581-1.545,2.421,2.421,0,0,0-1.58-.508,5.115,5.115,0,0,0-3.851,1.249c-.264.264-.491.581-.764.819s-.645.308-.465.622.534.508.726.784A6.666,6.666,0,0,1,874.522,507.212Z" transform="translate(-624.055 -371.038)" fill="#fbbebe"/>
    <path id="Path_339" data-name="Path 339" d="M870.989,528.85a33,33,0,0,1-1.777,6.544,24.641,24.641,0,0,0-1.046,2.933c-.224.9-.18,1.865-.386,2.768-.256,1.124-.511,2.251-.717,3.384a22.193,22.193,0,0,0-.412,5.257,2.2,2.2,0,0,0,.157.81c.1.209.25.389.34.6a1.452,1.452,0,0,1-.081,1.162,3.361,3.361,0,0,1-.6.906c-2.707.807-5.6.543-8.423.715-2.6.157-5.228.691-7.79.247a6.175,6.175,0,0,1,.61-3.511c1.205-3.291,2.538-6.718,2.324-10.166a10.527,10.527,0,0,0-.136-1.2,15.9,15.9,0,0,1,.773-7.34,12.6,12.6,0,0,0,.331-4.583,8.349,8.349,0,0,1-.02-1.5,2.639,2.639,0,0,1,.546-1.4c0-.02.026-.041.041-.061a.4.4,0,0,1,.218,0h0a.186.186,0,0,0,.145,0l.032-.02a.073.073,0,0,1,.084,0c.067.041.1.18.25.206a5.8,5.8,0,0,0,.648.061,3.488,3.488,0,0,1,.773.11h.035a2.267,2.267,0,0,0,1.127-.1,3,3,0,0,0,.691-.267c.064-.07.465-.134.546-.183.264-.16.206-.909.261-1.217a3.347,3.347,0,0,1,.218-.9,1.534,1.534,0,0,1,1.243-.723,6.616,6.616,0,0,1,1.49.134c1.083.154,2.193.128,3.256.378a2.425,2.425,0,0,0,1.609.07c.134.032.154.148.154.29a1.863,1.863,0,0,1-.081.4c-.186.8.444,1.539,1.025,2.12a3.288,3.288,0,0,0,.857.682c.29.134.581.189.871.334a1.584,1.584,0,0,1,.581.531,2.219,2.219,0,0,1,.331.845A5.052,5.052,0,0,1,870.989,528.85Z" transform="translate(-608.692 -384.301)" fill="#3f3d56"/>
    <path id="Path_340" data-name="Path 340" d="M877.667,536.17a33,33,0,0,1-1.777,6.544,24.647,24.647,0,0,0-1.046,2.933c-.224.9-.18,1.865-.386,2.768-.256,1.124-.511,2.251-.717,3.384-.061.035-.125.067-.189.1a4.455,4.455,0,0,1-1.138.366,6.971,6.971,0,0,1-2.126-.07l-4.145-.555c-1.656-.224-3.419-.494-4.647-1.615a9.917,9.917,0,0,1-1.621-2.213,10.542,10.542,0,0,0-.136-1.2,15.9,15.9,0,0,1,.773-7.339,12.6,12.6,0,0,0,.331-4.583,8.377,8.377,0,0,1-.02-1.5,2.64,2.64,0,0,1,.546-1.4,2.072,2.072,0,0,1,.259-.058h0a1.282,1.282,0,0,1,.177-.023h.084a1.266,1.266,0,0,1,.291.035,5.249,5.249,0,0,1,.581.224h.035a2.221,2.221,0,0,0,.773.11c.383,0,.778-.061,1.162-.087a2.143,2.143,0,0,1,1.377.247,8.25,8.25,0,0,1,.767.7,3.3,3.3,0,0,0,.967.526,10.279,10.279,0,0,0,7.732-.163,1.513,1.513,0,0,1,.776-.2,1.451,1.451,0,0,1,.558.238c.174.1.346.2.523.29a2.218,2.218,0,0,1,.331.845A5.053,5.053,0,0,1,877.667,536.17Z" transform="translate(-615.37 -391.6)" opacity="0.1"/>
    <path id="Path_341" data-name="Path 341" d="M874.068,532.885a15.506,15.506,0,0,1-3.311-1.452,1.482,1.482,0,0,0-.558-.238,1.558,1.558,0,0,0-.778.2,10.273,10.273,0,0,1-7.729.163,3.36,3.36,0,0,1-.967-.526,8.67,8.67,0,0,0-.767-.7c-.956-.619-2.277.107-3.346-.29a5.914,5.914,0,0,0-.581-.224c-.845-.212-1.7.63-2.536.375a14.128,14.128,0,0,0-.683,2.591,28.227,28.227,0,0,0-.189,3.055c0,.613-.029,1.226,0,1.839a.6.6,0,0,1,.459.953,23.811,23.811,0,0,1-2.143,4.534,9.849,9.849,0,0,1,1.795,1.371c1.016,1.075,1.516,2.582,2.614,3.575,1.237,1.118,3,1.391,4.647,1.612l4.145.555a7.082,7.082,0,0,0,2.129.073,4.477,4.477,0,0,0,1.136-.369,2.033,2.033,0,0,0,.633-.418,2.326,2.326,0,0,0,.375-.581c.328-.656.627-1.327.9-2.007.1-.241.241-.523.5-.543,1.539-1.388,2.991-2.811,4.531-4.2A10.04,10.04,0,0,0,876,540.486c.764-1.13.07-2.73,0-4.1a5.169,5.169,0,0,0-.131-1.037A3.328,3.328,0,0,0,874.068,532.885Z" transform="translate(-609.249 -390.236)" fill="#707070"/>
    <path id="Path_342" data-name="Path 342" d="M835.979,517.5c-.232.465-.79.688-1.22.982l-1.473,1.011a.982.982,0,0,1-.729.25.958.958,0,0,1-.543-.508v-.209a1.948,1.948,0,0,1,.093-.694,2.163,2.163,0,0,1,.651-.837,5.326,5.326,0,0,1,1.908-1.162.654.654,0,0,1,.349-.035.46.46,0,0,1,.128.055,1.687,1.687,0,0,1,.261.378C835.52,516.967,836.1,517.261,835.979,517.5Z" transform="translate(-595.772 -380.608)" opacity="0.1"/>
    <path id="Path_343" data-name="Path 343" d="M840.326,521.019a2.116,2.116,0,0,1-1.258-.72l-1.1-1.022a1.029,1.029,0,0,1-.192-.215,1.51,1.51,0,0,1-.134-.357,4.1,4.1,0,0,0-1.069-1.534.7.7,0,0,0-.317-.227.637.637,0,0,0-.351.035A5.313,5.313,0,0,0,834,518.141a2.17,2.17,0,0,0-.651.836,1.933,1.933,0,0,0-.093.694,5.333,5.333,0,0,0,.505,2.219c.049.108.1.215.163.32a10.052,10.052,0,0,0,1.365,1.775l.691.773c.68.761,1.359,1.522,2.1,2.222a2.77,2.77,0,0,0,.941.656,1.052,1.052,0,0,0,1.081-.174,1.563,1.563,0,0,0,.308-.552,10.863,10.863,0,0,0,.9-3.622,13.673,13.673,0,0,0-.064-1.5C841.195,521.257,840.82,521.051,840.326,521.019Z" transform="translate(-596.658 -381.083)" fill="#707070"/>
    <path id="Path_344" data-name="Path 344" d="M833.035,638.3a67.137,67.137,0,0,1-.622,8.734c-.058.468-.122.935-.154,1.4-.1,1.356.061,2.719-.067,4.066-.067.729-.218,1.452-.346,2.164a38.47,38.47,0,0,0-.494,9.628c.4,5.353-.828,10.709-.27,16.047a12.97,12.97,0,0,1-.171,3.1,13.154,13.154,0,0,1-.45,1.876q-.636,2.181-1.278,4.357a1.511,1.511,0,0,1-.29.6,1.376,1.376,0,0,1-1.089.322,12.564,12.564,0,0,1-4.775-1.481,1.663,1.663,0,0,1-.479-.29c-.317-.328-.291-.845-.43-1.278a12.194,12.194,0,0,0-.732-1.284,4.191,4.191,0,0,1-.317-1.322q-.29-2.231-.4-4.479c-.11-2.109,1.284-4.049,1.743-6.1.871-4.031.134-8.353,1.682-12.178.488-1.208-.221-2.672-.29-3.973a12.6,12.6,0,0,0-.325-2.492,15.452,15.452,0,0,1-.947-3.253,11.95,11.95,0,0,1,.369-2.425,10.906,10.906,0,0,0-.049-3.581c-.154-.976-.389-1.952-.625-2.9l-.052.107a32.836,32.836,0,0,0-1.821,4.284c-.232.712-.436,1.438-.726,2.129-.238.581-.532,1.112-.819,1.658a47.64,47.64,0,0,0-2.687,5.969c-.36,1-.677,2.033-.99,3.041l-2.152,6.971c-.581,1.833-1.217,3.6-1.786,5.434-.8,2.614-1.609,5.2-2.544,7.761-.871,2.425-1.908,4.938-1.6,7.5a5.519,5.519,0,0,1-2.565.52,15.017,15.017,0,0,1-4.357-1.057,3.387,3.387,0,0,1-1.5-.895,3.559,3.559,0,0,1-.29-2.942,7.1,7.1,0,0,1,.349-1.324c.221-.534.581-1.008.807-1.536a12.887,12.887,0,0,0,.665-3.262,4.025,4.025,0,0,1,1.522-2.861,41.347,41.347,0,0,1,1.394-5.733c.331-1.432.442-2.9.7-4.357a9.569,9.569,0,0,1,1.56-4.081,6.468,6.468,0,0,1,.79-3.485,3.805,3.805,0,0,0,.346-.741,4.248,4.248,0,0,0,.093-.767,4.534,4.534,0,0,1,1.226-2.692,5.462,5.462,0,0,1,.476-3.195,11.106,11.106,0,0,0,.61-4.087,3.58,3.58,0,0,1,.055-1.162c.081-.291.241-.537.334-.816a4.644,4.644,0,0,0,.131-1.043,12.062,12.062,0,0,1,1.452-4.455c.418-.819.064-1.931.151-2.843a10.991,10.991,0,0,1,1.069-4.406c.139-.25.291-.488.415-.746a3.231,3.231,0,0,0,.241-1.162,4.276,4.276,0,0,0-.119-1.836,9.412,9.412,0,0,1,5.7-1.743,35.5,35.5,0,0,0,6.044-.334c.581-.131,1.162-.311,1.775-.4a11.48,11.48,0,0,1,4.177.427,4.974,4.974,0,0,0,.581,2.518A27.032,27.032,0,0,1,833.035,638.3Z" transform="translate(-571.786 -458.023)" fill="#33313f"/>
    <path id="Path_345" data-name="Path 345" d="M884.854,673.29l-3.337,7.505c-.154-.976-.389-1.952-.625-2.9l-.052.107v-.157l1.818-4Z" transform="translate(-630.448 -492.184)" opacity="0.1"/>
    <path id="Path_346" data-name="Path 346" d="M917.851,614.69a1.255,1.255,0,0,1-.662.247,3.22,3.22,0,0,1-1.086-.148l-2.614-.654a1.288,1.288,0,0,1-.238-.084c.044-.456.131-.985.378-1.162.369-.247,1.472.084,1.891.142.72.1,1.452.215,2.155.351a5.756,5.756,0,0,1,.177,1.307Z" transform="translate(-653.466 -449.185)" opacity="0.1"/>
    <path id="Path_347" data-name="Path 347" d="M919.4,557.545c.055.241.134.479.18.723a5.515,5.515,0,0,1-.061,1.8l-.238,1.661-.238,1.67-.921,6.428-.227,1.592-.319,2.222a1.6,1.6,0,0,1-.139.534,1.113,1.113,0,0,1-.909.537,3.3,3.3,0,0,1-1.086-.148l-2.614-.656a.818.818,0,0,1-.32-.131.63.63,0,0,1-.168-.613c.038-.221.134-.427.166-.648.064-.43-.116-.871-.052-1.3a3.232,3.232,0,0,1,.29-.781c.871-1.926.366-4.174.662-6.265a9.5,9.5,0,0,1,2.016-4.484,12.872,12.872,0,0,1,2.225-2.184,4.476,4.476,0,0,1,1.252-.871C919.422,556.52,919.312,557.179,919.4,557.545Z" transform="translate(-652.807 -409.302)" fill="#707070"/>
    <path id="Path_348" data-name="Path 348" d="M861.97,470.068c-.192.61.108,1.281-.029,1.9-.148.685-.793,1.162-.976,1.85-.29,1.049.6,2,1.249,2.875,2.411,3.236,2.094,7.714,1.269,11.661a60.211,60.211,0,0,1-2.745,9.294,7.123,7.123,0,0,1-1.478,2.594,7.644,7.644,0,0,1,4.1-.4c1.7.471,3.16,2.117,4.88,1.743,1.034-.229,1.76-1.147,2.689-1.656,1.743-.938,3.843-.349,5.786-.046a2.271,2.271,0,0,0,1.263-.064,2.1,2.1,0,0,0,.767-.706,7.162,7.162,0,0,0,1.493-3.863,4.955,4.955,0,0,0-1.426-3.814,8.159,8.159,0,0,1-1.223-1.162,3.607,3.607,0,0,1-.479-1.76c-.229-3.195.549-6.457-.253-9.547a23.584,23.584,0,0,1-.892-3.282c-.16-1.4.221-2.9-.337-4.188a4.107,4.107,0,0,0-2.448-2.114,13.413,13.413,0,0,0-3.265-.581C868.319,468.674,862.635,467.991,861.97,470.068Z" transform="translate(-615.15 -346.782)" fill="#33313f"/>
    <g id="Group_348" data-name="Group 348" transform="translate(244.111 122.62)" opacity="0.1">
      <path id="Path_349" data-name="Path 349" d="M867.13,498.906a60.1,60.1,0,0,1-2.73,9.256c.2-.4.369-.816.529-1.231a59.909,59.909,0,0,0,2.745-9.294c.828-3.95,1.144-8.423-1.266-11.661a4.555,4.555,0,0,1-1.3-2.515,3.1,3.1,0,0,0-.494.912c-.29,1.048.6,2,1.249,2.875C868.271,490.48,867.955,494.959,867.13,498.906Z" transform="translate(-862.907 -479.952)"/>
      <path id="Path_350" data-name="Path 350" d="M868.424,473.654a2.825,2.825,0,0,0,.511-.979,4.974,4.974,0,0,0-.035-1.3,1.4,1.4,0,0,0-.482.665A5.741,5.741,0,0,0,868.424,473.654Z" transform="translate(-865.708 -471.38)"/>
      <path id="Path_351" data-name="Path 351" d="M879.286,566.8a2.091,2.091,0,0,1-.767.7,2.219,2.219,0,0,1-1.263.064c-1.943-.29-4.066-.889-5.786.049-.932.505-1.656,1.423-2.692,1.656-1.716.383-3.18-1.263-4.876-1.743a6.808,6.808,0,0,0-3.68.29,5.077,5.077,0,0,1-.961,1.388,7.644,7.644,0,0,1,4.1-.4c1.7.471,3.16,2.117,4.879,1.743,1.034-.229,1.76-1.147,2.69-1.656,1.743-.938,3.843-.349,5.786-.046a2.272,2.272,0,0,0,1.263-.064,2.1,2.1,0,0,0,.767-.706,7.807,7.807,0,0,0,1.2-2.3,8.451,8.451,0,0,1-.656,1.019Z" transform="translate(-859.26 -538.362)"/>
    </g>
  </g>
</svg>
