<svg id="Startup" xmlns="http://www.w3.org/2000/svg" width="70" height="70" viewBox="0 0 70 70">
  <path id="Path_26" data-name="Path 26" d="M0,0H70V70H0Z" fill="none"/>
  <path id="Path_27" data-name="Path 27" d="M35,17.222V10.111A6.89,6.89,0,0,0,28.4,3H8.6A6.89,6.89,0,0,0,2,10.111V59.889A6.89,6.89,0,0,0,8.6,67H61.4A6.89,6.89,0,0,0,68,59.889V24.333a6.89,6.89,0,0,0-6.6-7.111ZM15.2,59.889H8.6V52.778h6.6Zm0-14.222H8.6V38.556h6.6Zm0-14.222H8.6V24.333h6.6Zm0-14.222H8.6V10.111h6.6ZM28.4,59.889H21.8V52.778h6.6Zm0-14.222H21.8V38.556h6.6Zm0-14.222H21.8V24.333h6.6Zm0-14.222H21.8V10.111h6.6ZM58.1,59.889H35V52.778h6.6V45.667H35V38.556h6.6V31.444H35V24.333H58.1a3.445,3.445,0,0,1,3.3,3.556V56.333A3.445,3.445,0,0,1,58.1,59.889ZM54.8,31.444H48.2v7.111h6.6Zm0,14.222H48.2v7.111h6.6Z" transform="translate(0)" fill="#50cb93"/>
</svg>
