<svg xmlns="http://www.w3.org/2000/svg" width="288.721" height="288" viewBox="0 0 288.721 288">
  <g id="Group_415" data-name="Group 415" transform="translate(-70 -319)">
    <circle id="Ellipse_61" data-name="Ellipse 61" cx="144" cy="144" r="144" transform="translate(70 319)" fill="rgba(80,203,147,0.21)"/>
    <g id="Group_414" data-name="Group 414" transform="translate(70 353)">
      <path id="Path_472" data-name="Path 472" d="M343.868,185.054h-1.053V156.2a16.7,16.7,0,0,0-16.7-16.7H264.984a16.7,16.7,0,0,0-16.7,16.7V314.5a16.7,16.7,0,0,0,16.7,16.7h61.131a16.7,16.7,0,0,0,16.7-16.7v-108.9h1.053Z" transform="translate(-228.337 -139.5)" fill="#3f3d56"/>
      <path id="Path_473" data-name="Path 473" d="M335.208,151.783h-7.979a5.925,5.925,0,0,1-5.486,8.163H286.721a5.925,5.925,0,0,1-5.486-8.163h-7.453a12.471,12.471,0,0,0-12.471,12.471V322.317a12.471,12.471,0,0,0,12.471,12.471h61.425a12.471,12.471,0,0,0,12.471-12.471h0V164.254a12.471,12.471,0,0,0-12.471-12.471Z" transform="translate(-236.756 -147.438)" fill="#fff"/>
      <path id="Path_474" data-name="Path 474" d="M327.017,680.207H192.246a.354.354,0,1,1,0-.707H327.017a.354.354,0,1,1,0,.707Z" transform="translate(-191.892 -488.485)" fill="#fff"/>
      <circle id="Ellipse_44" data-name="Ellipse 44" cx="29.871" cy="29.871" r="29.871" transform="translate(37.868 62.535)" fill="#50cb93"/>
      <path id="Path_395" data-name="Path 395" d="M356.5,391.44a3.1,3.1,0,0,1-1.864-.619l-.033-.025-7.02-5.37a3.12,3.12,0,0,1,3.8-4.952l4.547,3.487,10.745-14.018a3.119,3.119,0,0,1,4.372-.578h0l-.067.093.069-.093a3.122,3.122,0,0,1,.577,4.373L358.984,390.22a3.12,3.12,0,0,1-2.481,1.217Z" transform="translate(-291.721 -287.639)" fill="#fff"/>
      <path id="Path_475" data-name="Path 475" d="M883.342,621.977a9.288,9.288,0,0,1,1.276-1.625c.2-.207.41-.4.627-.592a9.954,9.954,0,0,1,16.414,5.662c1.459-5.4-2.339-10.709-6.157-14.792s-8.186-8.557-8.164-14.149a10.771,10.771,0,0,1,3.831-7.945c.071-.062.142-.125.214-.185a14.528,14.528,0,0,1,10.006-3.487c6.791.364,12.721,4.928,16.839,10.342,6.628,8.711,9.533,20.94,4.893,30.856-4.082,8.722-12.787,13.9-21.671,18.065q-1.861.872-3.714,1.692c-.008,0-.017.008-.025.01-.059.026-.119.052-.175.079l-.763.336.117.077.365.237-.379-.228c-.038-.023-.078-.045-.115-.068-4.363-2.618-8.788-5.388-11.8-9.476C881.831,632.542,880.574,626.463,883.342,621.977Z" transform="translate(-637.766 -427.318)" fill="#24885c"/>
      <path id="Path_476" data-name="Path 476" d="M917.581,618.492a24.692,24.692,0,0,1,1.9,6.908,21.442,21.442,0,0,1-.259,6.371,27.478,27.478,0,0,1-5.51,11.787,39.548,39.548,0,0,1-7.139,6.94q-1.861.872-3.714,1.692c-.008,0-.017.008-.025.01-.059.026-.119.052-.175.079l-.763.336.117.077.365.237L902,652.7c-.038-.023-.078-.045-.115-.068a21.666,21.666,0,0,0-12.143-25.911c.2-.207.41-.4.627-.592a22.861,22.861,0,0,1,3.5,2,22.4,22.4,0,0,1,8.475,11.227,22.9,22.9,0,0,1,.5,12.8c.219-.143.439-.29.653-.436a40.151,40.151,0,0,0,10.633-10.071,25.56,25.56,0,0,0,4.535-11.526,23.1,23.1,0,0,0-2.622-13.055,53.505,53.505,0,0,0-8.382-11.91,60.794,60.794,0,0,0-11.24-9.665.437.437,0,0,1-.129-.589.372.372,0,0,1,.214-.185.324.324,0,0,1,.276.056c.509.34,1.015.683,1.514,1.036a61.487,61.487,0,0,1,11.236,10.264A49.5,49.5,0,0,1,917.581,618.492Z" transform="translate(-642.891 -433.69)" fill="#fff"/>
      <circle id="Ellipse_44-2" data-name="Ellipse 44" cx="6.344" cy="6.344" r="6.344" transform="translate(179.38 1.182)" fill="#b2e6cf"/>
      <circle id="Ellipse_44-3" data-name="Ellipse 44" cx="3.868" cy="3.868" r="3.868" transform="translate(260.738 91.03)" fill="#b2e6cf"/>
      <circle id="Ellipse_44-4" data-name="Ellipse 44" cx="3.868" cy="3.868" r="3.868" transform="translate(147.544 101.642)" fill="#b2e6cf"/>
      <path id="Path_477" data-name="Path 477" d="M625.462,759.208H760.233a.354.354,0,0,0,0-.708H625.462a.354.354,0,0,0,0,.708Z" transform="translate(-471.866 -539.54)" fill="#fff"/>
      <path id="Path_478" data-name="Path 478" d="M926.9,225.343a5.183,5.183,0,0,0-9.953-2.627l-10.936,12.538,3.209,8.962,11-14.65a5.155,5.155,0,0,0,6.682-4.223Z" transform="translate(-653.403 -191.161)" fill="#ffb7b7"/>
      <path id="Path_479" data-name="Path 479" d="M619.2,149.541l36.3-38.744-4.9-7.785-45.533,38.509Z" transform="translate(-391.042 -66.573)" fill="#3f3d56"/>
      <circle id="Ellipse_59" data-name="Ellipse 59" cx="12.734" cy="12.734" r="12.734" transform="translate(207.325 33.958)" fill="#2f2e41"/>
      <path id="Path_480" data-name="Path 480" d="M816.894,237.673a26.7,26.7,0,0,1,9.715-6.282,13.668,13.668,0,0,1,7.359-.913,7.014,7.014,0,0,1,5.462,4.6,8.684,8.684,0,0,1-.887,5.945c-.869,1.854-2.029,3.574-2.732,5.5a12.546,12.546,0,0,0,12.624,16.824c-2.412.323-4.636,1.457-6.994,2.06s-5.141.562-6.893-1.127c-1.854-1.787-1.891-4.693-1.8-7.267q.2-5.738.4-11.477a14.578,14.578,0,0,0-.578-5.785,4.968,4.968,0,0,0-4.328-3.4,7.1,7.1,0,0,0-3.975,1.793,8.123,8.123,0,0,1-3.916,1.958c-1.474.131-3.156-.959-3.046-2.435Z" transform="translate(-595.811 -198.174)" fill="#2f2e41"/>
      <path id="Path_481" data-name="Path 481" d="M665.264,473.02a5.183,5.183,0,0,1-3.9-9.524l11-12.481,9.3,2.01-13.087,12.818a5.155,5.155,0,0,1-3.314,7.176Z" transform="translate(-493.571 -340.822)" fill="#ffb7b7"/>
      <path id="Path_482" data-name="Path 482" d="M522.332,211.606l-27.419,34.418-8.358-3.837,32.228-50.175Z" transform="translate(-314.445 -124.091)" fill="#3f3d56"/>
      <path id="Path_483" data-name="Path 483" d="M513.909,541.024l-6.535-.1.786,22.273h5.748Z" transform="translate(-327.9 -349.58)" fill="#ffb7b7"/>
      <path id="Path_484" data-name="Path 484" d="M688.02,738.081H676.7a7.214,7.214,0,0,0-7.214,7.213v.235H688.02Z" transform="translate(-500.546 -526.344)" fill="#2f2e41"/>
      <path id="Path_485" data-name="Path 485" d="M635.123,524.511l-7.139,4.583,14.279,17.179,4.837-3.105Z" transform="translate(-405.846 -338.975)" fill="#ffb7b7"/>
      <path id="Path_486" data-name="Path 486" d="M851.076,710.049l-9.526,6.116h0a7.214,7.214,0,0,0-2.173,9.968l.127.2,15.6-10.013Z" transform="translate(-609.602 -508.228)" fill="#2f2e41"/>
      <path id="Path_487" data-name="Path 487" d="M745.122,374.145s-15.861-52.68-20.959-53.392-13.31,13.517-13.31,13.517c-10.648,13.586-21.629,57.595-21.629,57.595s18.3,1.145,31.685,8.264,29.171-.36,29.171-.36Z" transform="translate(-513.303 -256.621)" fill="#3f3d56"/>
      <path id="Path_488" data-name="Path 488" d="M745.122,374.145s-15.861-52.68-20.959-53.392-11.224,13.662-11.224,13.662c-5.306,21.931-23.715,57.451-23.715,57.451s18.3,1.145,31.685,8.264,29.171-.36,29.171-.36Z" transform="translate(-513.303 -256.622)" opacity="0.1"/>
      <path id="Path_489" data-name="Path 489" d="M542.829,280.972v26.471l3.115,38.346L561.508,374.8,554.08,380.1l-21.224-27.591-8.394-27.4-13.183,60.647-9.9-.707,6.879-84.086L521.306,277.3Z" transform="translate(-324.022 -179.21)" fill="#2f2e41"/>
      <path id="Path_490" data-name="Path 490" d="M754.263,332.827c-4.952,4.952-.354,10.258-.354,10.258l-5.66,12.734,22.285,6.013,7.788-34.8-5.306-5.66C762.4,321.02,762.4,320.8,762.4,320.8,760.54,322.62,754.263,332.827,754.263,332.827Z" transform="translate(-551.449 -256.668)" fill="#50cb93"/>
      <path id="Path_491" data-name="Path 491" d="M798.375,324.834a9.51,9.51,0,0,0-13.363,2.092c-5.6,7.8-10.783,20.4-3.645,36.106,11.461,25.224,21.434,38.137,25.488,38.136a1.614,1.614,0,0,0,.521-.082c2.5-.847,6.1-5.07,6.757-8.791a4.459,4.459,0,0,0-1.415-4.461c-4.576-3.66-12.79-15.055-15.353-30.054-1.416-8.288,1.33-15.837,3.883-20.711a9.508,9.508,0,0,0-2.751-12.143h0Z" transform="translate(-570.604 -258.074)" fill="#3f3d56"/>
      <circle id="Ellipse_60" data-name="Ellipse 60" cx="9.374" cy="9.374" r="9.374" transform="translate(203.495 46.222) rotate(-28.663)" fill="#ffb7b7"/>
      <path id="Path_492" data-name="Path 492" d="M765.872,259.88h13.536l.139-1.943.694,1.943h2.084l.275-3.852,1.375,3.852h4.033v-.191a10.125,10.125,0,0,0-10.114-10.114h-1.908a10.125,10.125,0,0,0-10.114,10.114Z" transform="translate(-562.837 -210.638)" fill="#2f2e41"/>
      <path id="Path_493" data-name="Path 493" d="M813.29,269.4l5.776-1.874V253.5H808.156l.27.27C812.184,257.523,816.364,270.84,813.29,269.4Z" transform="translate(-590.164 -213.175)" fill="#2f2e41"/>
    </g>
  </g>
</svg>
